Arima Greek-Light.ufo
<glyph name="numbersign" format="1">
  <advance width="680"/>
  <unicode hex="0023"/>
  <outline>
    <contour>
      <point x="314" y="688" type="line"/>
      <point x="284" y="688" type="line"/>
      <point x="158" y="0" type="line"/>
      <point x="188" y="0" type="line"/>
    </contour>
    <contour>
      <point x="514" y="688" type="line"/>
      <point x="484" y="688" type="line"/>
      <point x="358" y="0" type="line"/>
      <point x="388" y="0" type="line"/>
    </contour>
    <contour>
      <point x="61" y="432" type="line"/>
      <point x="644" y="432" type="line"/>
      <point x="648" y="458" type="line"/>
      <point x="65" y="458" type="line"/>
    </contour>
    <contour>
      <point x="29" y="232" type="line"/>
      <point x="612" y="232" type="line"/>
      <point x="616" y="258" type="line"/>
      <point x="33" y="258" type="line"/>
    </contour>
  </outline>
</glyph>
<glyph name="quotesingle" format="1">
  <advance width="114"/>
  <unicode hex="0027"/>
  <outline>
    <contour>
      <point x="51" y="730"/>
      <point x="63" y="730"/>
      <point x="74" y="727" type="curve"/>
      <point x="68" y="610" type="line"/>
      <point x="46" y="610" type="line"/>
      <point x="40" y="727" type="line"/>
    </contour>
  </outline>
</glyph>
<glyph name="slash" format="1">
  <advance width="391"/>
  <unicode hex="002F"/>
  <outline>
    <contour>
      <point x="362" y="730" type="line"/>
      <point x="330" y="730" type="line"/>
      <point x="7" y="-142" type="line"/>
      <point x="39" y="-142" type="line"/>
    </contour>
  </outline>
</glyph>
<glyph name="zero" format="1">
  <advance width="608"/>
  <unicode hex="0030"/>
  <outline>
    <contour>
      <point x="449" y="-12"/>
      <point x="533" y="100"/>
      <point x="533" y="344" type="curve" smooth="yes"/>
      <point x="533" y="588"/>
      <point x="449" y="700"/>
      <point x="304" y="700" type="curve" smooth="yes"/>
      <point x="159" y="700"/>
      <point x="75" y="588"/>
      <point x="75" y="344" type="curve" smooth="yes"/>
      <point x="75" y="100"/>
      <point x="159" y="-12"/>
      <point x="304" y="-12" type="curve" smooth="yes"/>
    </contour>
    <contour>
      <point x="180" y="16"/>
      <point x="107" y="118"/>
      <point x="107" y="344" type="curve" smooth="yes"/>
      <point x="107" y="570"/>
      <point x="180" y="672"/>
      <point x="304" y="672" type="curve" smooth="yes"/>
      <point x="428" y="672"/>
      <point x="501" y="570"/>
      <point x="501" y="344" type="curve" smooth="yes"/>
      <point x="501" y="118"/>
      <point x="428" y="16"/>
      <point x="304" y="16" type="curve" smooth="yes"/>
    </contour>
  </outline>
</glyph>
<glyph name="four" format="1">
  <advance width="577"/>
  <unicode hex="0034"/>
  <outline>
    <contour>
      <point x="434" y="673" type="line" smooth="yes"/>
      <point x="434" y="686"/>
      <point x="428" y="695"/>
      <point x="417" y="695" type="curve" smooth="yes"/>
      <point x="407" y="695"/>
      <point x="402" y="690"/>
      <point x="399" y="686" type="curve"/>
      <point x="47" y="229" type="line" smooth="yes"/>
      <point x="42" y="223"/>
      <point x="34" y="213"/>
      <point x="47" y="199" type="curve"/>
      <point x="536" y="199" type="line"/>
      <point x="544" y="201"/>
      <point x="545" y="221"/>
      <point x="536" y="230" type="curve"/>
      <point x="498" y="226"/>
      <point x="458" y="224"/>
      <point x="419" y="224" type="curve" smooth="yes"/>
      <point x="81" y="224" type="line"/>
      <point x="404" y="646" type="line"/>
      <point x="407" y="14" type="line"/>
      <point x="407" y="0"/>
      <point x="413" y="-8"/>
      <point x="424" y="-8" type="curve" smooth="yes"/>
      <point x="433" y="-8"/>
      <point x="438" y="-4"/>
      <point x="442" y="0" type="curve"/>
      <point x="438" y="16"/>
      <point x="436" y="47"/>
      <point x="436" y="87" type="curve"/>
    </contour>
  </outline>
</glyph>
<glyph name="B" format="1">
  <advance width="559"/>
  <unicode hex="0042"/>
  <outline>
    <contour>
      <point x="209" y="0" type="line" smooth="yes"/>
      <point x="385" y="0"/>
      <point x="484" y="31"/>
      <point x="484" y="178" type="curve" smooth="yes"/>
      <point x="484" y="281"/>
      <point x="435" y="340"/>
      <point x="329" y="358" type="curve"/>
      <point x="410" y="385"/>
      <point x="449" y="447"/>
      <point x="449" y="530" type="curve" smooth="yes"/>
      <point x="449" y="651"/>
      <point x="369" y="700"/>
      <point x="205" y="700" type="curve" smooth="yes"/>
      <point x="124" y="700"/>
      <point x="104" y="689"/>
      <point x="101" y="687" type="curve"/>
      <point x="106" y="670"/>
      <point x="108" y="609"/>
      <point x="108" y="600" type="curve" smooth="yes"/>
      <point x="108" y="22" type="line"/>
      <point x="109" y="8"/>
      <point x="115" y="0"/>
      <point x="127" y="0" type="curve" smooth="yes"/>
    </contour>
    <contour>
      <point x="138" y="672" type="line"/>
      <point x="148" y="675"/>
      <point x="168" y="676"/>
      <point x="195" y="676" type="curve" smooth="yes"/>
      <point x="350" y="676"/>
      <point x="417" y="639"/>
      <point x="417" y="531" type="curve" smooth="yes"/>
      <point x="417" y="415"/>
      <point x="335" y="370"/>
      <point x="254" y="370" type="curve" smooth="yes"/>
      <point x="123" y="370" type="line"/>
      <point x="130" y="344" type="line"/>
      <point x="219" y="344" type="line" smooth="yes"/>
      <point x="363" y="344"/>
      <point x="452" y="308"/>
      <point x="452" y="180" type="curve" smooth="yes"/>
      <point x="452" y="48"/>
      <point x="359" y="28"/>
      <point x="220" y="28" type="curve" smooth="yes"/>
      <point x="138" y="28" type="line"/>
    </contour>
    <contour>
      <point x="275" y="688" type="move" name="top"/>
    </contour>
    <contour>
      <point x="275" y="0" type="move" name="bottom"/>
    </contour>
  </outline>
</glyph>
<glyph name="F" format="1">
  <advance width="505"/>
  <unicode hex="0046"/>
  <outline>
    <contour>
      <point x="135" y="-8"/>
      <point x="140" y="-4"/>
      <point x="144" y="0" type="curve"/>
      <point x="140" y="16"/>
      <point x="138" y="47"/>
      <point x="138" y="87" type="curve" smooth="yes"/>
      <point x="136" y="662" type="line"/>
      <point x="238" y="662"/>
      <point x="328" y="662"/>
      <point x="430" y="662" type="curve"/>
      <point x="441" y="665"/>
      <point x="447" y="688"/>
      <point x="433" y="688" type="curve"/>
      <point x="119" y="688" type="line" smooth="yes"/>
      <point x="110" y="688"/>
      <point x="105" y="685"/>
      <point x="101" y="680" type="curve"/>
      <point x="105" y="664"/>
      <point x="107" y="640"/>
      <point x="107" y="600" type="curve" smooth="yes"/>
      <point x="109" y="14" type="line" smooth="yes"/>
      <point x="109" y="0"/>
      <point x="115" y="-8"/>
      <point x="126" y="-8" type="curve" smooth="yes"/>
    </contour>
    <contour>
      <point x="409" y="346" type="line"/>
      <point x="412" y="355"/>
      <point x="412" y="363"/>
      <point x="409" y="372" type="curve"/>
      <point x="131" y="372" type="line"/>
      <point x="131" y="346" type="line"/>
    </contour>
    <contour>
      <point x="253" y="688" type="move" name="top"/>
    </contour>
    <contour>
      <point x="253" y="0" type="move" name="bottom"/>
    </contour>
  </outline>
</glyph>
<glyph name="H" format="1">
  <advance width="662"/>
  <unicode hex="0048"/>
  <outline>
    <contour>
      <point x="138" y="673" type="line" smooth="yes"/>
      <point x="138" y="687"/>
      <point x="130" y="695"/>
      <point x="119" y="695" type="curve" smooth="yes"/>
      <point x="110" y="695"/>
      <point x="105" y="691"/>
      <point x="101" y="687" type="curve"/>
      <point x="105" y="671"/>
      <point x="107" y="640"/>
      <point x="107" y="600" type="curve" smooth="yes"/>
      <point x="109" y="14" type="line" smooth="yes"/>
      <point x="109" y="0"/>
      <point x="115" y="-8"/>
      <point x="126" y="-8" type="curve" smooth="yes"/>
      <point x="135" y="-8"/>
      <point x="140" y="-4"/>
      <point x="144" y="0" type="curve"/>
      <point x="140" y="16"/>
      <point x="138" y="47"/>
      <point x="138" y="87" type="curve" smooth="yes"/>
    </contour>
    <contour>
      <point x="555" y="673" type="line" smooth="yes"/>
      <point x="555" y="687"/>
      <point x="547" y="695"/>
      <point x="536" y="695" type="curve" smooth="yes"/>
      <point x="527" y="695"/>
      <point x="522" y="691"/>
      <point x="518" y="687" type="curve"/>
      <point x="522" y="671"/>
      <point x="524" y="640"/>
      <point x="524" y="600" type="curve" smooth="yes"/>
      <point x="526" y="14" type="line" smooth="yes"/>
      <point x="526" y="0"/>
      <point x="532" y="-8"/>
      <point x="543" y="-8" type="curve" smooth="yes"/>
      <point x="552" y="-8"/>
      <point x="557" y="-4"/>
      <point x="561" y="0" type="curve"/>
      <point x="557" y="16"/>
      <point x="555" y="47"/>
      <point x="555" y="87" type="curve" smooth="yes"/>
    </contour>
    <contour>
      <point x="130" y="354" type="line"/>
      <point x="541" y="354" type="line"/>
      <point x="541" y="380" type="line"/>
      <point x="130" y="380" type="line"/>
    </contour>
    <contour>
      <point x="331" y="0" type="move" name="bottom"/>
    </contour>
    <contour>
      <point x="331" y="688" type="move" name="top"/>
    </contour>
    <contour>
      <point x="20" y="688" type="move" name="topleft"/>
    </contour>
    <contour>
      <point x="331" y="344" type="move" name="center"/>
    </contour>
  </outline>
</glyph>
<glyph name="I" format="1">
  <advance width="245"/>
  <unicode hex="0049"/>
  <outline>
    <contour>
      <point x="135" y="-8"/>
      <point x="140" y="-4"/>
      <point x="144" y="0" type="curve"/>
      <point x="140" y="16"/>
      <point x="138" y="47"/>
      <point x="138" y="87" type="curve" smooth="yes"/>
      <point x="138" y="673" type="line" smooth="yes"/>
      <point x="138" y="687"/>
      <point x="130" y="695"/>
      <point x="119" y="695" type="curve" smooth="yes"/>
      <point x="110" y="695"/>
      <point x="105" y="691"/>
      <point x="101" y="687" type="curve"/>
      <point x="105" y="671"/>
      <point x="107" y="640"/>
      <point x="107" y="600" type="curve" smooth="yes"/>
      <point x="109" y="14" type="line" smooth="yes"/>
      <point x="109" y="0"/>
      <point x="115" y="-8"/>
      <point x="126" y="-8" type="curve" smooth="yes"/>
    </contour>
    <contour>
      <point x="124" y="-1" type="move" name="ogonek"/>
    </contour>
    <contour>
      <point x="119" y="688" type="move" name="top"/>
    </contour>
    <contour>
      <point x="20" y="688" type="move" name="topleft"/>
    </contour>
    <contour>
      <point x="123" y="0" type="move" name="bottom"/>
    </contour>
  </outline>
</glyph>
<glyph name="J" format="1">
  <advance width="419"/>
  <unicode hex="004A"/>
  <outline>
    <contour>
      <point x="303" y="-12"/>
      <point x="317" y="91"/>
      <point x="317" y="161" type="curve" smooth="yes"/>
      <point x="317" y="631" type="line" smooth="yes"/>
      <point x="317" y="653"/>
      <point x="317" y="676"/>
      <point x="320" y="698" type="curve"/>
      <point x="305" y="696"/>
      <point x="287" y="693"/>
      <point x="258" y="694" type="curve" smooth="yes"/>
      <point x="223" y="695"/>
      <point x="162" y="700"/>
      <point x="145" y="700" type="curve" smooth="yes"/>
      <point x="104" y="700"/>
      <point x="84" y="672"/>
      <point x="84" y="646" type="curve" smooth="yes"/>
      <point x="84" y="615"/>
      <point x="102" y="594"/>
      <point x="121" y="594" type="curve" smooth="yes"/>
      <point x="125" y="594"/>
      <point x="133" y="594"/>
      <point x="139" y="599" type="curve"/>
      <point x="122" y="607"/>
      <point x="112" y="618"/>
      <point x="112" y="640" type="curve" smooth="yes"/>
      <point x="112" y="676"/>
      <point x="142" y="679"/>
      <point x="163" y="677" type="curve" smooth="yes"/>
      <point x="213" y="674"/>
      <point x="246" y="671"/>
      <point x="287" y="672" type="curve"/>
      <point x="287" y="659"/>
      <point x="287" y="646"/>
      <point x="287" y="633" type="curve"/>
      <point x="287" y="164" type="line" smooth="yes"/>
      <point x="287" y="72"/>
      <point x="265" y="16"/>
      <point x="172" y="16" type="curve" smooth="yes"/>
      <point x="135" y="16"/>
      <point x="80" y="35"/>
      <point x="80" y="100" type="curve" smooth="yes"/>
      <point x="80" y="107"/>
      <point x="80" y="114"/>
      <point x="82" y="122" type="curve"/>
      <point x="81" y="122"/>
      <point x="80" y="122"/>
      <point x="79" y="122" type="curve" smooth="yes"/>
      <point x="60" y="122"/>
      <point x="53" y="104"/>
      <point x="53" y="90" type="curve" smooth="yes"/>
      <point x="53" y="37"/>
      <point x="95" y="-12"/>
      <point x="174" y="-12" type="curve" smooth="yes"/>
    </contour>
    <contour>
      <point x="212" y="688" type="move" name="top"/>
    </contour>
    <contour>
      <point x="212" y="0" type="move" name="bottom"/>
    </contour>
  </outline>
</glyph>
<glyph name="O" format="1">
  <advance width="638"/>
  <unicode hex="004F"/>
  <outline>
    <contour>
      <point x="476" y="-12"/>
      <point x="568" y="100"/>
      <point x="568" y="344" type="curve" smooth="yes"/>
      <point x="568" y="588"/>
      <point x="476" y="700"/>
      <point x="319" y="700" type="curve" smooth="yes"/>
      <point x="162" y="700"/>
      <point x="70" y="588"/>
      <point x="70" y="344" type="curve" smooth="yes"/>
      <point x="70" y="100"/>
      <point x="162" y="-12"/>
      <point x="319" y="-12" type="curve" smooth="yes"/>
    </contour>
    <contour>
      <point x="183" y="16"/>
      <point x="102" y="118"/>
      <point x="102" y="344" type="curve" smooth="yes"/>
      <point x="102" y="570"/>
      <point x="183" y="672"/>
      <point x="319" y="672" type="curve" smooth="yes"/>
      <point x="455" y="672"/>
      <point x="536" y="570"/>
      <point x="536" y="344" type="curve" smooth="yes"/>
      <point x="536" y="118"/>
      <point x="455" y="16"/>
      <point x="319" y="16" type="curve" smooth="yes"/>
    </contour>
    <contour>
      <point x="319" y="0" type="move" name="bottom"/>
    </contour>
    <contour>
      <point x="566" y="10" type="move" name="ogonek"/>
    </contour>
    <contour>
      <point x="319" y="688" type="move" name="top"/>
    </contour>
    <contour>
      <point x="513" y="623" type="move" name="topright"/>
    </contour>
    <contour>
      <point x="30" y="688" type="move" name="topleft"/>
    </contour>
    <contour>
      <point x="319" y="344" type="move" name="center"/>
    </contour>
  </outline>
</glyph>
<glyph name="Q" format="1">
  <advance width="638"/>
  <unicode hex="0051"/>
  <outline>
    <contour>
      <point x="557" y="-134"/>
      <point x="603" y="-102"/>
      <point x="603" y="-46" type="curve" smooth="yes"/>
      <point x="603" y="-33"/>
      <point x="592" y="-18"/>
      <point x="574" y="-22" type="curve"/>
      <point x="582" y="-74"/>
      <point x="539" y="-106"/>
      <point x="481" y="-106" type="curve" smooth="yes"/>
      <point x="407" y="-108"/>
      <point x="334" y="-53"/>
      <point x="271" y="-7" type="curve"/>
      <point x="283" y="-10"/>
      <point x="306" y="-12"/>
      <point x="319" y="-12" type="curve" smooth="yes"/>
      <point x="476" y="-12"/>
      <point x="568" y="100"/>
      <point x="568" y="344" type="curve" smooth="yes"/>
      <point x="568" y="588"/>
      <point x="476" y="700"/>
      <point x="319" y="700" type="curve" smooth="yes"/>
      <point x="162" y="700"/>
      <point x="70" y="588"/>
      <point x="70" y="344" type="curve" smooth="yes"/>
      <point x="70" y="184"/>
      <point x="113" y="81"/>
      <point x="192" y="21" type="curve" smooth="yes"/>
      <point x="268" y="-37"/>
      <point x="370" y="-137"/>
      <point x="484" y="-134" type="curve" smooth="yes"/>
    </contour>
    <contour>
      <point x="183" y="16"/>
      <point x="102" y="118"/>
      <point x="102" y="344" type="curve" smooth="yes"/>
      <point x="102" y="570"/>
      <point x="183" y="672"/>
      <point x="319" y="672" type="curve" smooth="yes"/>
      <point x="455" y="672"/>
      <point x="536" y="570"/>
      <point x="536" y="344" type="curve" smooth="yes"/>
      <point x="536" y="118"/>
      <point x="455" y="16"/>
      <point x="319" y="16" type="curve" smooth="yes"/>
    </contour>
    <contour>
      <point x="316" y="688" type="move" name="top"/>
    </contour>
    <contour>
      <point x="316" y="0" type="move" name="bottom"/>
    </contour>
  </outline>
</glyph>
<glyph name="T" format="1">
  <advance width="503"/>
  <unicode hex="0054"/>
  <outline>
    <contour>
      <point x="265" y="-8"/>
      <point x="270" y="-4"/>
      <point x="274" y="0" type="curve"/>
      <point x="270" y="16"/>
      <point x="268" y="46"/>
      <point x="268" y="87" type="curve" smooth="yes"/>
      <point x="267" y="677" type="line"/>
      <point x="237" y="675" type="line"/>
      <point x="239" y="14" type="line" smooth="yes"/>
      <point x="239" y="0"/>
      <point x="245" y="-8"/>
      <point x="256" y="-8" type="curve" smooth="yes"/>
    </contour>
    <contour>
      <point x="103" y="662"/>
      <point x="176" y="662"/>
      <point x="248" y="662" type="curve" smooth="yes"/>
      <point x="322" y="662"/>
      <point x="397" y="662"/>
      <point x="472" y="662" type="curve"/>
      <point x="483" y="665"/>
      <point x="489" y="688"/>
      <point x="475" y="688" type="curve"/>
      <point x="29" y="688" type="line"/>
      <point x="15" y="688"/>
      <point x="21" y="665"/>
      <point x="32" y="662" type="curve"/>
    </contour>
    <contour>
      <point x="252" y="344" type="move" name="center"/>
    </contour>
    <contour>
      <point x="259" y="0" type="move" name="bottom"/>
    </contour>
    <contour>
      <point x="252" y="688" type="move" name="top"/>
    </contour>
  </outline>
</glyph>
<glyph name="U" format="1">
  <advance width="642"/>
  <unicode hex="0055"/>
  <outline>
    <contour>
      <point x="547" y="687"/>
      <point x="541" y="695"/>
      <point x="530" y="695" type="curve" smooth="yes"/>
      <point x="521" y="695"/>
      <point x="516" y="691"/>
      <point x="512" y="687" type="curve"/>
      <point x="516" y="671"/>
      <point x="518" y="640"/>
      <point x="518" y="600" type="curve" smooth="yes"/>
      <point x="518" y="304" type="line" smooth="yes"/>
      <point x="518" y="115"/>
      <point x="450" y="16"/>
      <point x="320" y="16" type="curve" smooth="yes"/>
      <point x="190" y="16"/>
      <point x="130" y="107"/>
      <point x="130" y="304" type="curve" smooth="yes"/>
      <point x="130" y="673" type="line" smooth="yes"/>
      <point x="130" y="687"/>
      <point x="124" y="695"/>
      <point x="113" y="695" type="curve" smooth="yes"/>
      <point x="104" y="695"/>
      <point x="99" y="691"/>
      <point x="95" y="687" type="curve"/>
      <point x="99" y="671"/>
      <point x="101" y="640"/>
      <point x="101" y="600" type="curve" smooth="yes"/>
      <point x="101" y="304" type="line" smooth="yes"/>
      <point x="101" y="87"/>
      <point x="170" y="-12"/>
      <point x="320" y="-12" type="curve" smooth="yes"/>
      <point x="469" y="-12"/>
      <point x="547" y="96"/>
      <point x="547" y="304" type="curve" smooth="yes"/>
      <point x="547" y="673" type="line" smooth="yes"/>
    </contour>
    <contour>
      <point x="391" y="6" type="move" name="ogonek"/>
    </contour>
    <contour>
      <point x="321" y="688" type="move" name="top"/>
    </contour>
    <contour>
      <point x="547" y="690" type="move" name="topright"/>
    </contour>
    <contour>
      <point x="321" y="0" type="move" name="bottom"/>
    </contour>
  </outline>
</glyph>
<glyph name="V" format="1">
  <advance width="553"/>
  <unicode hex="0056"/>
  <outline>
    <contour>
      <point x="282" y="-8"/>
      <point x="289" y="-6"/>
      <point x="297" y="0" type="curve"/>
      <point x="519" y="658" type="line" smooth="yes"/>
      <point x="521" y="665"/>
      <point x="525" y="675"/>
      <point x="525" y="682" type="curve" smooth="yes"/>
      <point x="526" y="693"/>
      <point x="517" y="700"/>
      <point x="504" y="700" type="curve" smooth="yes"/>
      <point x="499" y="700"/>
      <point x="495" y="700"/>
      <point x="490" y="698" type="curve"/>
      <point x="492" y="694"/>
      <point x="492" y="688"/>
      <point x="492" y="684" type="curve" smooth="yes"/>
      <point x="492" y="678"/>
      <point x="489" y="668"/>
      <point x="487" y="663" type="curve" smooth="yes"/>
      <point x="269" y="6" type="line"/>
      <point x="283" y="6" type="line"/>
      <point x="55" y="686" type="line" smooth="yes"/>
      <point x="52" y="695"/>
      <point x="44" y="700"/>
      <point x="35" y="700" type="curve" smooth="yes"/>
      <point x="28" y="700"/>
      <point x="22" y="698"/>
      <point x="15" y="691" type="curve"/>
      <point x="20" y="685"/>
      <point x="27" y="674"/>
      <point x="31" y="661" type="curve" smooth="yes"/>
      <point x="250" y="9" type="line" smooth="yes"/>
      <point x="254" y="-2"/>
      <point x="263" y="-8"/>
      <point x="275" y="-8" type="curve" smooth="yes"/>
    </contour>
    <contour>
      <point x="270" y="688" type="move" name="top"/>
    </contour>
    <contour>
      <point x="270" y="0" type="move" name="bottom"/>
    </contour>
  </outline>
</glyph>
<glyph name="X" format="1">
  <advance width="574"/>
  <unicode hex="0058"/>
  <outline>
    <contour>
      <point x="541" y="-7"/>
      <point x="560" y="12"/>
      <point x="560" y="31" type="curve" smooth="yes"/>
      <point x="560" y="44"/>
      <point x="552" y="54"/>
      <point x="537" y="55" type="curve"/>
      <point x="540" y="42"/>
      <point x="533" y="23"/>
      <point x="510" y="23" type="curve" smooth="yes"/>
      <point x="488" y="23"/>
      <point x="474" y="42"/>
      <point x="461" y="65" type="curve" smooth="yes"/>
      <point x="299" y="364" type="line"/>
      <point x="152" y="637" type="line" smooth="yes"/>
      <point x="138" y="663"/>
      <point x="113" y="695"/>
      <point x="75" y="695" type="curve" smooth="yes"/>
      <point x="44" y="695"/>
      <point x="25" y="676"/>
      <point x="25" y="657" type="curve" smooth="yes"/>
      <point x="25" y="644"/>
      <point x="33" y="634"/>
      <point x="48" y="633" type="curve"/>
      <point x="45" y="649"/>
      <point x="52" y="665"/>
      <point x="75" y="665" type="curve" smooth="yes"/>
      <point x="95" y="665"/>
      <point x="109" y="651"/>
      <point x="124" y="623" type="curve" smooth="yes"/>
      <point x="272" y="349" type="line"/>
      <point x="432" y="51" type="line" smooth="yes"/>
      <point x="447" y="22"/>
      <point x="472" y="-7"/>
      <point x="510" y="-7" type="curve" smooth="yes"/>
    </contour>
    <contour>
      <point x="57" y="-5"/>
      <point x="63" y="-1"/>
      <point x="68" y="6" type="curve" smooth="yes"/>
      <point x="302" y="354" type="line"/>
      <point x="284" y="379" type="line"/>
      <point x="82" y="81" type="line" smooth="yes"/>
      <point x="55" y="42"/>
      <point x="39" y="23"/>
      <point x="31" y="16" type="curve"/>
      <point x="33" y="0"/>
      <point x="41" y="-5"/>
      <point x="50" y="-5" type="curve" smooth="yes"/>
    </contour>
    <contour>
      <point x="472" y="613" type="line" smooth="yes"/>
      <point x="493" y="645"/>
      <point x="512" y="668"/>
      <point x="525" y="679" type="curve"/>
      <point x="522" y="694"/>
      <point x="516" y="700"/>
      <point x="506" y="700" type="curve" smooth="yes"/>
      <point x="499" y="700"/>
      <point x="493" y="696"/>
      <point x="488" y="689" type="curve" smooth="yes"/>
      <point x="284" y="370" type="line"/>
      <point x="301" y="348" type="line"/>
    </contour>
    <contour>
      <point x="287" y="688" type="move" name="top"/>
    </contour>
    <contour>
      <point x="287" y="0" type="move" name="bottom"/>
    </contour>
  </outline>
</glyph>
<glyph name="bracketright" format="1">
  <advance width="310"/>
  <unicode hex="005D"/>
  <outline>
    <contour>
      <point x="70" y="730" type="line"/>
      <point x="70" y="706" type="line"/>
      <point x="150" y="706" type="line"/>
      <point x="150" y="-136" type="line"/>
      <point x="70" y="-136" type="line"/>
      <point x="70" y="-160" type="line"/>
      <point x="180" y="-160" type="line"/>
      <point x="180" y="730" type="line"/>
    </contour>
  </outline>
</glyph>
<glyph name="b" format="1">
  <advance width="529"/>
  <unicode hex="0062"/>
  <outline>
    <contour>
      <point x="419" y="-12"/>
      <point x="476" y="126"/>
      <point x="476" y="275" type="curve" smooth="yes"/>
      <point x="476" y="438"/>
      <point x="417" y="512"/>
      <point x="306" y="512" type="curve" smooth="yes"/>
      <point x="214" y="512"/>
      <point x="145" y="443"/>
      <point x="119" y="365" type="curve"/>
      <point x="120" y="635" type="line" smooth="yes"/>
      <point x="120" y="654"/>
      <point x="122" y="710"/>
      <point x="125" y="720" type="curve"/>
      <point x="121" y="724"/>
      <point x="116" y="728"/>
      <point x="107" y="728" type="curve" smooth="yes"/>
      <point x="95" y="728"/>
      <point x="88" y="720"/>
      <point x="88" y="706" type="curve"/>
      <point x="88" y="56" type="line"/>
      <point x="135" y="-2"/>
      <point x="220" y="-12"/>
      <point x="267" y="-12" type="curve" smooth="yes"/>
    </contour>
    <contour>
      <point x="208" y="14"/>
      <point x="138" y="39"/>
      <point x="118" y="70" type="curve"/>
      <point x="118" y="220" type="line" smooth="yes"/>
      <point x="118" y="314"/>
      <point x="162" y="484"/>
      <point x="308" y="484" type="curve" smooth="yes"/>
      <point x="393" y="484"/>
      <point x="445" y="421"/>
      <point x="445" y="276" type="curve" smooth="yes"/>
      <point x="445" y="170"/>
      <point x="419" y="20"/>
      <point x="270" y="16" type="curve" smooth="yes"/>
    </contour>
    <contour>
      <point x="265" y="500" type="move" name="top"/>
    </contour>
    <contour>
      <point x="265" y="0" type="move" name="bottom"/>
    </contour>
  </outline>
</glyph>
<glyph name="e" format="1">
  <advance width="497"/>
  <unicode hex="0065"/>
  <outline>
    <contour>
      <point x="344" y="-12"/>
      <point x="410" y="15"/>
      <point x="435" y="72" type="curve" smooth="yes"/>
      <point x="447" y="100"/>
      <point x="439" y="110"/>
      <point x="427" y="115" type="curve"/>
      <point x="409" y="45"/>
      <point x="340" y="17"/>
      <point x="271" y="17" type="curve" smooth="yes"/>
      <point x="176" y="17"/>
      <point x="85" y="71"/>
      <point x="85" y="247" type="curve" smooth="yes"/>
      <point x="85" y="409"/>
      <point x="163" y="485"/>
      <point x="274" y="485" type="curve" smooth="yes"/>
      <point x="338" y="485"/>
      <point x="407" y="460"/>
      <point x="407" y="375" type="curve" smooth="yes"/>
      <point x="407" y="291"/>
      <point x="339" y="249"/>
      <point x="213" y="249" type="curve" smooth="yes"/>
      <point x="170" y="249"/>
      <point x="105" y="254"/>
      <point x="67" y="262" type="curve"/>
      <point x="67" y="237" type="line"/>
      <point x="104" y="231"/>
      <point x="144" y="224"/>
      <point x="201" y="224" type="curve" smooth="yes"/>
      <point x="354" y="224"/>
      <point x="438" y="274"/>
      <point x="438" y="375" type="curve" smooth="yes"/>
      <point x="438" y="463"/>
      <point x="375" y="512"/>
      <point x="276" y="512" type="curve" smooth="yes"/>
      <point x="130" y="512"/>
      <point x="53" y="408"/>
      <point x="53" y="243" type="curve" smooth="yes"/>
      <point x="53" y="73"/>
      <point x="134" y="-12"/>
      <point x="268" y="-12" type="curve" smooth="yes"/>
    </contour>
    <contour>
      <point x="365" y="17" type="move" name="ogonek"/>
    </contour>
    <contour>
      <point x="249" y="0" type="move" name="bottom"/>
    </contour>
    <contour>
      <point x="268" y="500" type="move" name="top"/>
    </contour>
  </outline>
</glyph>
<glyph name="n" format="1">
  <advance width="562"/>
  <unicode hex="006E"/>
  <outline>
    <contour>
      <point x="130" y="-8"/>
      <point x="135" y="-4"/>
      <point x="139" y="0" type="curve"/>
      <point x="133" y="24"/>
      <point x="133" y="59"/>
      <point x="133" y="247" type="curve" smooth="yes"/>
      <point x="133" y="433"/>
      <point x="239" y="484"/>
      <point x="307" y="484" type="curve" smooth="yes"/>
      <point x="402" y="484"/>
      <point x="440" y="422"/>
      <point x="441" y="298" type="curve" smooth="yes"/>
      <point x="441" y="14" type="line" smooth="yes"/>
      <point x="441" y="0"/>
      <point x="448" y="-8"/>
      <point x="460" y="-8" type="curve" smooth="yes"/>
      <point x="469" y="-8"/>
      <point x="474" y="-4"/>
      <point x="478" y="0" type="curve"/>
      <point x="474" y="16"/>
      <point x="472" y="47"/>
      <point x="471" y="87" type="curve" smooth="yes"/>
      <point x="471" y="297" type="line" smooth="yes"/>
      <point x="471" y="437"/>
      <point x="420" y="512"/>
      <point x="310" y="512" type="curve" smooth="yes"/>
      <point x="216" y="512"/>
      <point x="128" y="439"/>
      <point x="120" y="319" type="curve"/>
      <point x="133" y="327" type="line"/>
      <point x="133" y="431" type="line" smooth="yes"/>
      <point x="133" y="483"/>
      <point x="117" y="510"/>
      <point x="76" y="510" type="curve" smooth="yes"/>
      <point x="52" y="510"/>
      <point x="36" y="501"/>
      <point x="36" y="486" type="curve" smooth="yes"/>
      <point x="36" y="479"/>
      <point x="39" y="472"/>
      <point x="46" y="464" type="curve"/>
      <point x="53" y="480"/>
      <point x="65" y="482"/>
      <point x="73" y="482" type="curve" smooth="yes"/>
      <point x="94" y="482"/>
      <point x="102" y="469"/>
      <point x="103" y="432" type="curve" smooth="yes"/>
      <point x="103" y="14" type="line" smooth="yes"/>
      <point x="103" y="0"/>
      <point x="109" y="-8"/>
      <point x="121" y="-8" type="curve" smooth="yes"/>
    </contour>
    <contour>
      <point x="283" y="500" type="move" name="top"/>
    </contour>
    <contour>
      <point x="283" y="0" type="move" name="bottom"/>
    </contour>
  </outline>
</glyph>
<glyph name="o" format="1">
  <advance width="534"/>
  <unicode hex="006F"/>
  <outline>
    <contour>
      <point x="402" y="-12"/>
      <point x="481" y="85"/>
      <point x="481" y="250" type="curve" smooth="yes"/>
      <point x="481" y="415"/>
      <point x="402" y="512"/>
      <point x="267" y="512" type="curve" smooth="yes"/>
      <point x="132" y="512"/>
      <point x="53" y="415"/>
      <point x="53" y="250" type="curve" smooth="yes"/>
      <point x="53" y="85"/>
      <point x="132" y="-12"/>
      <point x="267" y="-12" type="curve" smooth="yes"/>
    </contour>
    <contour>
      <point x="153" y="16"/>
      <point x="85" y="103"/>
      <point x="85" y="250" type="curve" smooth="yes"/>
      <point x="85" y="397"/>
      <point x="153" y="484"/>
      <point x="267" y="484" type="curve" smooth="yes"/>
      <point x="381" y="484"/>
      <point x="449" y="397"/>
      <point x="449" y="250" type="curve" smooth="yes"/>
      <point x="449" y="103"/>
      <point x="381" y="16"/>
      <point x="267" y="16" type="curve" smooth="yes"/>
    </contour>
    <contour>
      <point x="267" y="0" type="move" name="bottom"/>
    </contour>
    <contour>
      <point x="481" y="10" type="move" name="ogonek"/>
    </contour>
    <contour>
      <point x="267" y="500" type="move" name="top"/>
    </contour>
    <contour>
      <point x="372" y="490" type="move" name="topright"/>
    </contour>
    <contour>
      <point x="267" y="250" type="move" name="center"/>
    </contour>
  </outline>
</glyph>
<glyph name="q" format="1">
  <advance width="532"/>
  <unicode hex="0071"/>
  <outline>
    <contour>
      <point x="435" y="-228"/>
      <point x="442" y="-220"/>
      <point x="442" y="-206" type="curve" smooth="yes"/>
      <point x="442" y="444" type="line"/>
      <point x="409" y="484"/>
      <point x="341" y="512"/>
      <point x="257" y="512" type="curve" smooth="yes"/>
      <point x="92" y="512"/>
      <point x="53" y="334"/>
      <point x="53" y="237" type="curve" smooth="yes"/>
      <point x="53" y="68"/>
      <point x="113" y="-13"/>
      <point x="226" y="-13" type="curve" smooth="yes"/>
      <point x="315" y="-13"/>
      <point x="386" y="54"/>
      <point x="411" y="139" type="curve"/>
      <point x="411" y="-84" type="line" smooth="yes"/>
      <point x="411" y="-160"/>
      <point x="409" y="-204"/>
      <point x="405" y="-220" type="curve"/>
      <point x="409" y="-224"/>
      <point x="414" y="-228"/>
      <point x="423" y="-228" type="curve" smooth="yes"/>
    </contour>
    <contour>
      <point x="137" y="15"/>
      <point x="85" y="79"/>
      <point x="85" y="234" type="curve" smooth="yes"/>
      <point x="85" y="298"/>
      <point x="101" y="484"/>
      <point x="259" y="484" type="curve" smooth="yes"/>
      <point x="326" y="484"/>
      <point x="390" y="457"/>
      <point x="412" y="433" type="curve"/>
      <point x="412" y="274" type="line" smooth="yes"/>
      <point x="412" y="196"/>
      <point x="368" y="15"/>
      <point x="229" y="15" type="curve" smooth="yes"/>
    </contour>
    <contour>
      <point x="227" y="-216" type="move" name="top"/>
    </contour>
    <contour>
      <point x="227" y="284" type="move" name="bottom"/>
    </contour>
  </outline>
</glyph>
<glyph name="s" format="1">
  <advance width="460"/>
  <unicode hex="0073"/>
  <outline>
    <contour>
      <point x="378" y="-12"/>
      <point x="414" y="58"/>
      <point x="414" y="113" type="curve" smooth="yes"/>
      <point x="414" y="205"/>
      <point x="319" y="231"/>
      <point x="237" y="269" type="curve" smooth="yes"/>
      <point x="166" y="302"/>
      <point x="101" y="327"/>
      <point x="101" y="403" type="curve" smooth="yes"/>
      <point x="101" y="465"/>
      <point x="163" y="485"/>
      <point x="229" y="485" type="curve" smooth="yes"/>
      <point x="314" y="485"/>
      <point x="366" y="460"/>
      <point x="366" y="404" type="curve" smooth="yes"/>
      <point x="366" y="396"/>
      <point x="365" y="387"/>
      <point x="361" y="378" type="curve"/>
      <point x="370" y="375"/>
      <point x="378" y="375"/>
      <point x="384" y="379" type="curve" smooth="yes"/>
      <point x="394" y="385"/>
      <point x="397" y="395"/>
      <point x="397" y="410" type="curve" smooth="yes"/>
      <point x="397" y="473"/>
      <point x="341" y="513"/>
      <point x="231" y="513" type="curve" smooth="yes"/>
      <point x="144" y="513"/>
      <point x="69" y="482"/>
      <point x="69" y="400" type="curve" smooth="yes"/>
      <point x="69" y="308"/>
      <point x="143" y="280"/>
      <point x="221" y="242" type="curve" smooth="yes"/>
      <point x="299" y="204"/>
      <point x="382" y="186"/>
      <point x="382" y="111" type="curve" smooth="yes"/>
      <point x="382" y="50"/>
      <point x="317" y="16"/>
      <point x="224" y="16" type="curve" smooth="yes"/>
      <point x="137" y="16"/>
      <point x="76" y="49"/>
      <point x="76" y="124" type="curve" smooth="yes"/>
      <point x="76" y="138"/>
      <point x="78" y="146"/>
      <point x="82" y="156" type="curve"/>
      <point x="56" y="159"/>
      <point x="45" y="145"/>
      <point x="45" y="114" type="curve" smooth="yes"/>
      <point x="45" y="47"/>
      <point x="94" y="-12"/>
      <point x="227" y="-12" type="curve" smooth="yes"/>
    </contour>
    <contour>
      <point x="230" y="500" type="move" name="top"/>
    </contour>
    <contour>
      <point x="230" y="0" type="move" name="bottom"/>
    </contour>
  </outline>
</glyph>
<glyph name="v" format="1">
  <advance width="464"/>
  <unicode hex="0076"/>
  <outline>
    <contour>
      <point x="242" y="-8"/>
      <point x="249" y="-6"/>
      <point x="257" y="0" type="curve"/>
      <point x="439" y="458" type="line" smooth="yes"/>
      <point x="442" y="465"/>
      <point x="445" y="475"/>
      <point x="445" y="482" type="curve" smooth="yes"/>
      <point x="446" y="493"/>
      <point x="437" y="500"/>
      <point x="424" y="500" type="curve" smooth="yes"/>
      <point x="419" y="500"/>
      <point x="415" y="500"/>
      <point x="410" y="498" type="curve"/>
      <point x="412" y="494"/>
      <point x="412" y="488"/>
      <point x="412" y="484" type="curve" smooth="yes"/>
      <point x="412" y="478"/>
      <point x="409" y="468"/>
      <point x="407" y="463" type="curve" smooth="yes"/>
      <point x="231" y="6" type="line"/>
      <point x="241" y="6" type="line"/>
      <point x="55" y="486" type="line" smooth="yes"/>
      <point x="52" y="495"/>
      <point x="44" y="500"/>
      <point x="35" y="500" type="curve" smooth="yes"/>
      <point x="28" y="500"/>
      <point x="22" y="498"/>
      <point x="15" y="491" type="curve"/>
      <point x="20" y="485"/>
      <point x="28" y="469"/>
      <point x="31" y="461" type="curve" smooth="yes"/>
      <point x="210" y="9" type="line" smooth="yes"/>
      <point x="214" y="-2"/>
      <point x="223" y="-8"/>
      <point x="235" y="-8" type="curve" smooth="yes"/>
    </contour>
    <contour>
      <point x="230" y="500" type="move" name="top"/>
    </contour>
    <contour>
      <point x="230" y="0" type="move" name="bottom"/>
    </contour>
  </outline>
</glyph>
<glyph name="z" format="1">
  <advance width="476"/>
  <unicode hex="007A"/>
  <outline>
    <contour>
      <point x="79" y="0"/>
      <point x="116" y="0"/>
      <point x="146" y="0" type="curve" smooth="yes"/>
      <point x="333" y="0" type="line" smooth="yes"/>
      <point x="397" y="0"/>
      <point x="439" y="38"/>
      <point x="439" y="94" type="curve" smooth="yes"/>
      <point x="439" y="120"/>
      <point x="430" y="164"/>
      <point x="395" y="164" type="curve" smooth="yes"/>
      <point x="390" y="164"/>
      <point x="384" y="162"/>
      <point x="377" y="158" type="curve"/>
      <point x="395" y="148"/>
      <point x="409" y="124"/>
      <point x="409" y="97" type="curve" smooth="yes"/>
      <point x="409" y="62"/>
      <point x="388" y="27"/>
      <point x="322" y="27" type="curve" smooth="yes"/>
      <point x="65" y="27" type="line"/>
      <point x="70" y="17" type="line"/>
      <point x="398" y="448" type="line" smooth="yes"/>
      <point x="411" y="466"/>
      <point x="413" y="481"/>
      <point x="413" y="497" type="curve"/>
      <point x="403" y="504" type="line"/>
      <point x="387" y="500"/>
      <point x="359" y="500"/>
      <point x="308" y="500" type="curve" smooth="yes"/>
      <point x="144" y="500" type="line" smooth="yes"/>
      <point x="80" y="500"/>
      <point x="44" y="463"/>
      <point x="44" y="420" type="curve" smooth="yes"/>
      <point x="44" y="391"/>
      <point x="60" y="358"/>
      <point x="90" y="358" type="curve" smooth="yes"/>
      <point x="96" y="358"/>
      <point x="102" y="361"/>
      <point x="105" y="366" type="curve"/>
      <point x="88" y="378"/>
      <point x="74" y="394"/>
      <point x="74" y="418" type="curve" smooth="yes"/>
      <point x="74" y="445"/>
      <point x="93" y="472"/>
      <point x="146" y="472" type="curve" smooth="yes"/>
      <point x="395" y="472" type="line"/>
      <point x="390" y="482" type="line"/>
      <point x="55" y="40" type="line" smooth="yes"/>
      <point x="47" y="29"/>
      <point x="41" y="16"/>
      <point x="41" y="7" type="curve"/>
      <point x="49" y="-4" type="line"/>
    </contour>
    <contour>
      <point x="239" y="500" type="move" name="top"/>
    </contour>
    <contour>
      <point x="239" y="0" type="move" name="bottom"/>
    </contour>
  </outline>
</glyph>
<glyph name="bar" format="1">
  <advance width="230"/>
  <unicode hex="007C"/>
  <outline>
    <contour>
      <point x="130" y="-137" type="line"/>
      <point x="130" y="730" type="line"/>
      <point x="100" y="730" type="line"/>
      <point x="100" y="-137" type="line"/>
    </contour>
  </outline>
</glyph>
<glyph name="cent" format="1">
  <advance width="499"/>
  <unicode hex="00A2"/>
  <outline>
    <contour>
      <point x="343" y="-40"/>
      <point x="346" y="-35"/>
      <point x="349" y="-31" type="curve"/>
      <point x="343" y="-16"/>
      <point x="335" y="14"/>
      <point x="328" y="54" type="curve" smooth="yes"/>
      <point x="211" y="709" type="line" smooth="yes"/>
      <point x="208" y="723"/>
      <point x="202" y="730"/>
      <point x="192" y="728" type="curve" smooth="yes"/>
      <point x="184" y="727"/>
      <point x="181" y="722"/>
      <point x="178" y="718" type="curve"/>
      <point x="184" y="703"/>
      <point x="192" y="673"/>
      <point x="199" y="633" type="curve" smooth="yes"/>
      <point x="316" y="-22" type="line" smooth="yes"/>
      <point x="319" y="-36"/>
      <point x="325" y="-43"/>
      <point x="335" y="-41" type="curve" smooth="yes"/>
    </contour>
    <component base="c" xOffset="3" yOffset="100"/>
  </outline>
</glyph>
<glyph name="currency" format="1">
  <advance width="529"/>
  <unicode hex="00A4"/>
  <outline>
    <contour>
      <point x="366" y="192"/>
      <point x="448" y="274"/>
      <point x="448" y="375" type="curve" smooth="yes"/>
      <point x="448" y="476"/>
      <point x="364" y="559"/>
      <point x="262" y="559" type="curve" smooth="yes"/>
      <point x="161" y="559"/>
      <point x="79" y="477"/>
      <point x="79" y="377" type="curve" smooth="yes"/>
      <point x="79" y="275"/>
      <point x="163" y="192"/>
      <point x="266" y="192" type="curve" smooth="yes"/>
    </contour>
    <contour>
      <point x="178" y="220"/>
      <point x="109" y="290"/>
      <point x="109" y="375" type="curve" smooth="yes"/>
      <point x="109" y="461"/>
      <point x="179" y="531"/>
      <point x="265" y="531" type="curve" smooth="yes"/>
      <point x="349" y="531"/>
      <point x="418" y="461"/>
      <point x="418" y="376" type="curve" smooth="yes"/>
      <point x="418" y="290"/>
      <point x="348" y="220"/>
      <point x="263" y="220" type="curve" smooth="yes"/>
    </contour>
    <contour>
      <point x="163" y="496" type="line"/>
      <point x="82" y="576" type="line" smooth="yes"/>
      <point x="74" y="584"/>
      <point x="64" y="589"/>
      <point x="56" y="581" type="curve" smooth="yes"/>
      <point x="50" y="575"/>
      <point x="50" y="569"/>
      <point x="50" y="564" type="curve"/>
      <point x="64" y="555"/>
      <point x="87" y="534"/>
      <point x="116" y="506" type="curve" smooth="yes"/>
      <point x="145" y="479" type="line"/>
    </contour>
    <contour>
      <point x="465" y="558" type="line" smooth="yes"/>
      <point x="473" y="566"/>
      <point x="478" y="576"/>
      <point x="470" y="584" type="curve" smooth="yes"/>
      <point x="464" y="590"/>
      <point x="458" y="590"/>
      <point x="453" y="590" type="curve"/>
      <point x="444" y="576"/>
      <point x="423" y="553"/>
      <point x="395" y="524" type="curve" smooth="yes"/>
      <point x="368" y="495" type="line"/>
      <point x="385" y="477" type="line"/>
    </contour>
    <contour>
      <point x="455" y="167"/>
      <point x="465" y="162"/>
      <point x="473" y="170" type="curve" smooth="yes"/>
      <point x="479" y="176"/>
      <point x="479" y="182"/>
      <point x="479" y="187" type="curve"/>
      <point x="465" y="196"/>
      <point x="442" y="217"/>
      <point x="413" y="245" type="curve" smooth="yes"/>
      <point x="384" y="272" type="line"/>
      <point x="366" y="255" type="line"/>
      <point x="447" y="175" type="line" smooth="yes"/>
    </contour>
    <contour>
      <point x="85" y="175"/>
      <point x="106" y="198"/>
      <point x="134" y="227" type="curve" smooth="yes"/>
      <point x="161" y="256" type="line"/>
      <point x="144" y="274" type="line"/>
      <point x="64" y="193" type="line" smooth="yes"/>
      <point x="56" y="185"/>
      <point x="51" y="175"/>
      <point x="59" y="167" type="curve" smooth="yes"/>
      <point x="65" y="161"/>
      <point x="71" y="161"/>
      <point x="76" y="161" type="curve"/>
    </contour>
  </outline>
</glyph>
<glyph name="section" format="1">
  <advance width="460"/>
  <unicode hex="00A7"/>
  <outline>
    <contour>
      <point x="378" y="-81"/>
      <point x="414" y="-11"/>
      <point x="414" y="44" type="curve" smooth="yes"/>
      <point x="414" y="118"/>
      <point x="352" y="150"/>
      <point x="285" y="179" type="curve"/>
      <point x="388" y="190"/>
      <point x="414" y="253"/>
      <point x="414" y="300" type="curve" smooth="yes"/>
      <point x="414" y="392"/>
      <point x="319" y="418"/>
      <point x="237" y="456" type="curve" smooth="yes"/>
      <point x="166" y="489"/>
      <point x="101" y="514"/>
      <point x="101" y="590" type="curve" smooth="yes"/>
      <point x="101" y="652"/>
      <point x="163" y="672"/>
      <point x="229" y="672" type="curve" smooth="yes"/>
      <point x="314" y="672"/>
      <point x="366" y="647"/>
      <point x="366" y="591" type="curve" smooth="yes"/>
      <point x="366" y="583"/>
      <point x="365" y="574"/>
      <point x="361" y="565" type="curve"/>
      <point x="370" y="562"/>
      <point x="378" y="562"/>
      <point x="384" y="566" type="curve"/>
      <point x="394" y="572"/>
      <point x="397" y="582"/>
      <point x="397" y="597" type="curve" smooth="yes"/>
      <point x="397" y="660"/>
      <point x="341" y="700"/>
      <point x="231" y="700" type="curve" smooth="yes"/>
      <point x="144" y="700"/>
      <point x="69" y="669"/>
      <point x="69" y="587" type="curve" smooth="yes"/>
      <point x="69" y="514"/>
      <point x="116" y="481"/>
      <point x="175" y="451" type="curve"/>
      <point x="114" y="438"/>
      <point x="69" y="402"/>
      <point x="69" y="331" type="curve" smooth="yes"/>
      <point x="69" y="239"/>
      <point x="143" y="211"/>
      <point x="221" y="173" type="curve" smooth="yes"/>
      <point x="299" y="135"/>
      <point x="382" y="117"/>
      <point x="382" y="42" type="curve" smooth="yes"/>
      <point x="382" y="-19"/>
      <point x="317" y="-53"/>
      <point x="224" y="-53" type="curve" smooth="yes"/>
      <point x="137" y="-53"/>
      <point x="76" y="-20"/>
      <point x="76" y="55" type="curve" smooth="yes"/>
      <point x="76" y="69"/>
      <point x="78" y="77"/>
      <point x="82" y="87" type="curve"/>
      <point x="56" y="90"/>
      <point x="45" y="76"/>
      <point x="45" y="45" type="curve" smooth="yes"/>
      <point x="45" y="-22"/>
      <point x="94" y="-81"/>
      <point x="227" y="-81" type="curve" smooth="yes"/>
    </contour>
    <contour>
      <point x="175" y="231"/>
      <point x="101" y="260"/>
      <point x="101" y="334" type="curve" smooth="yes"/>
      <point x="101" y="403"/>
      <point x="152" y="435"/>
      <point x="227" y="427" type="curve"/>
      <point x="306" y="389"/>
      <point x="382" y="364"/>
      <point x="382" y="298" type="curve" smooth="yes"/>
      <point x="382" y="223"/>
      <point x="314" y="193"/>
      <point x="243" y="200" type="curve"/>
    </contour>
  </outline>
</glyph>
<glyph name="ordfeminine" format="1">
  <advance width="358"/>
  <unicode hex="00AA"/>
  <outline>
    <contour>
      <point x="332" y="358"/>
      <point x="349" y="366"/>
      <point x="349" y="381" type="curve" smooth="yes"/>
      <point x="349" y="385"/>
      <point x="348" y="390"/>
      <point x="343" y="395" type="curve"/>
      <point x="338" y="385"/>
      <point x="326" y="379"/>
      <point x="318" y="379" type="curve" smooth="yes"/>
      <point x="303" y="379"/>
      <point x="294" y="389"/>
      <point x="294" y="413" type="curve" smooth="yes"/>
      <point x="294" y="565" type="line" smooth="yes"/>
      <point x="294" y="658"/>
      <point x="253" y="708"/>
      <point x="165" y="708" type="curve" smooth="yes"/>
      <point x="96" y="708"/>
      <point x="51" y="683"/>
      <point x="51" y="630" type="curve" smooth="yes"/>
      <point x="51" y="604"/>
      <point x="66" y="574"/>
      <point x="86" y="574" type="curve" smooth="yes"/>
      <point x="90" y="574"/>
      <point x="98" y="576"/>
      <point x="104" y="585" type="curve"/>
      <point x="82" y="590"/>
      <point x="72" y="614"/>
      <point x="72" y="631" type="curve" smooth="yes"/>
      <point x="72" y="677"/>
      <point x="123" y="687"/>
      <point x="161" y="687" type="curve" smooth="yes"/>
      <point x="239" y="687"/>
      <point x="272" y="647"/>
      <point x="272" y="565" type="curve" smooth="yes"/>
      <point x="272" y="549" type="line"/>
      <point x="230" y="552"/>
      <point x="181" y="549"/>
      <point x="142" y="539" type="curve" smooth="yes"/>
      <point x="71" y="521"/>
      <point x="37" y="481"/>
      <point x="37" y="433" type="curve" smooth="yes"/>
      <point x="37" y="391"/>
      <point x="62" y="357"/>
      <point x="116" y="357" type="curve" smooth="yes"/>
      <point x="182" y="357"/>
      <point x="250" y="407"/>
      <point x="281" y="495" type="curve"/>
      <point x="272" y="503" type="line"/>
      <point x="272" y="414" type="line" smooth="yes"/>
      <point x="272" y="381"/>
      <point x="285" y="358"/>
      <point x="317" y="358" type="curve" smooth="yes"/>
    </contour>
    <contour>
      <point x="76" y="377"/>
      <point x="60" y="405"/>
      <point x="60" y="435" type="curve" smooth="yes"/>
      <point x="60" y="476"/>
      <point x="90" y="505"/>
      <point x="143" y="521" type="curve" smooth="yes"/>
      <point x="177" y="531"/>
      <point x="236" y="535"/>
      <point x="272" y="533" type="curve"/>
      <point x="270" y="457"/>
      <point x="188" y="377"/>
      <point x="120" y="377" type="curve" smooth="yes"/>
    </contour>
  </outline>
</glyph>
<glyph name="logicalnot" format="1">
  <advance width="574"/>
  <unicode hex="00AC"/>
  <outline>
    <contour>
      <point x="474" y="344" type="line"/>
      <point x="474" y="374" type="line"/>
      <point x="83" y="374" type="line"/>
      <point x="79" y="364"/>
      <point x="79" y="354"/>
      <point x="83" y="344" type="curve"/>
    </contour>
    <contour>
      <point x="454" y="223"/>
      <point x="464" y="223"/>
      <point x="474" y="228" type="curve"/>
      <point x="474" y="361" type="line"/>
      <point x="444" y="361" type="line"/>
      <point x="444" y="228" type="line"/>
    </contour>
  </outline>
</glyph>
<glyph name="registered" format="1">
  <advance width="837"/>
  <unicode hex="00AE"/>
  <outline>
    <contour>
      <point x="617" y="-12"/>
      <point x="777" y="148"/>
      <point x="777" y="346" type="curve" smooth="yes"/>
      <point x="777" y="541"/>
      <point x="617" y="700"/>
      <point x="419" y="700" type="curve" smooth="yes"/>
      <point x="220" y="700"/>
      <point x="60" y="542"/>
      <point x="60" y="346" type="curve" smooth="yes"/>
      <point x="60" y="148"/>
      <point x="220" y="-12"/>
      <point x="419" y="-12" type="curve" smooth="yes"/>
    </contour>
    <contour>
      <point x="235" y="13"/>
      <point x="87" y="161"/>
      <point x="87" y="346" type="curve" smooth="yes"/>
      <point x="87" y="528"/>
      <point x="235" y="675"/>
      <point x="419" y="675" type="curve" smooth="yes"/>
      <point x="602" y="675"/>
      <point x="750" y="528"/>
      <point x="750" y="346" type="curve" smooth="yes"/>
      <point x="750" y="162"/>
      <point x="602" y="13"/>
      <point x="419" y="13" type="curve" smooth="yes"/>
    </contour>
    <contour>
      <point x="306" y="123"/>
      <point x="311" y="126"/>
      <point x="315" y="128" type="curve"/>
      <point x="311" y="140"/>
      <point x="309" y="175"/>
      <point x="309" y="186" type="curve" smooth="yes"/>
      <point x="309" y="565" type="line"/>
      <point x="318" y="567"/>
      <point x="333" y="568"/>
      <point x="356" y="568" type="curve" smooth="yes"/>
      <point x="478" y="568"/>
      <point x="532" y="541"/>
      <point x="532" y="457" type="curve" smooth="yes"/>
      <point x="532" y="384"/>
      <point x="463" y="346"/>
      <point x="389" y="346" type="curve" smooth="yes"/>
      <point x="346" y="346"/>
      <point x="316" y="346"/>
      <point x="293" y="346" type="curve"/>
      <point x="299" y="325" type="line"/>
      <point x="389" y="325" type="line" smooth="yes"/>
      <point x="466" y="325"/>
      <point x="478" y="292"/>
      <point x="493" y="260" type="curve" smooth="yes"/>
      <point x="539" y="158" type="line" smooth="yes"/>
      <point x="551" y="136"/>
      <point x="571" y="123"/>
      <point x="590" y="123" type="curve" smooth="yes"/>
      <point x="602" y="123"/>
      <point x="623" y="129"/>
      <point x="623" y="143" type="curve" smooth="yes"/>
      <point x="623" y="147"/>
      <point x="622" y="151"/>
      <point x="619" y="155" type="curve"/>
      <point x="612" y="145"/>
      <point x="599" y="143"/>
      <point x="594" y="143" type="curve" smooth="yes"/>
      <point x="583" y="143"/>
      <point x="575" y="149"/>
      <point x="564" y="168" type="curve" smooth="yes"/>
      <point x="522" y="261" type="line" smooth="yes"/>
      <point x="502" y="301"/>
      <point x="483" y="340"/>
      <point x="434" y="340" type="curve"/>
      <point x="438" y="334" type="line"/>
      <point x="509" y="344"/>
      <point x="561" y="392"/>
      <point x="561" y="460" type="curve" smooth="yes"/>
      <point x="561" y="552"/>
      <point x="502" y="589"/>
      <point x="358" y="589" type="curve" smooth="yes"/>
      <point x="298" y="589"/>
      <point x="278" y="581"/>
      <point x="276" y="581" type="curve"/>
      <point x="280" y="569"/>
      <point x="281" y="529"/>
      <point x="281" y="523" type="curve" smooth="yes"/>
      <point x="281" y="137" type="line"/>
      <point x="282" y="128"/>
      <point x="287" y="123"/>
      <point x="296" y="123" type="curve" smooth="yes"/>
    </contour>
  </outline>
</glyph>
<glyph name="degree" format="1">
  <advance width="362"/>
  <unicode hex="00B0"/>
  <outline>
    <contour>
      <point x="245" y="477"/>
      <point x="297" y="527"/>
      <point x="297" y="589" type="curve" smooth="yes"/>
      <point x="297" y="650"/>
      <point x="245" y="700"/>
      <point x="181" y="700" type="curve" smooth="yes"/>
      <point x="117" y="700"/>
      <point x="65" y="650"/>
      <point x="65" y="589" type="curve" smooth="yes"/>
      <point x="65" y="527"/>
      <point x="117" y="477"/>
      <point x="181" y="477" type="curve" smooth="yes"/>
    </contour>
    <contour>
      <point x="133" y="503"/>
      <point x="94" y="542"/>
      <point x="94" y="589" type="curve" smooth="yes"/>
      <point x="94" y="636"/>
      <point x="133" y="674"/>
      <point x="181" y="674" type="curve" smooth="yes"/>
      <point x="229" y="674"/>
      <point x="268" y="636"/>
      <point x="268" y="589" type="curve" smooth="yes"/>
      <point x="268" y="542"/>
      <point x="229" y="503"/>
      <point x="181" y="503" type="curve" smooth="yes"/>
    </contour>
  </outline>
</glyph>
<glyph name="threesuperior" format="1">
  <advance width="375"/>
  <unicode hex="00B3"/>
  <outline>
    <contour>
      <point x="270" y="235"/>
      <point x="332" y="278"/>
      <point x="332" y="360" type="curve" smooth="yes"/>
      <point x="332" y="436"/>
      <point x="281" y="470"/>
      <point x="210" y="484" type="curve"/>
      <point x="276" y="498"/>
      <point x="317" y="535"/>
      <point x="317" y="596" type="curve" smooth="yes"/>
      <point x="317" y="674"/>
      <point x="252" y="700"/>
      <point x="190" y="700" type="curve" smooth="yes"/>
      <point x="98" y="700"/>
      <point x="63" y="643"/>
      <point x="63" y="617" type="curve" smooth="yes"/>
      <point x="63" y="605"/>
      <point x="69" y="600"/>
      <point x="81" y="600" type="curve"/>
      <point x="84" y="625"/>
      <point x="108" y="679"/>
      <point x="187" y="679" type="curve" smooth="yes"/>
      <point x="255" y="679"/>
      <point x="289" y="641"/>
      <point x="289" y="595" type="curve" smooth="yes"/>
      <point x="289" y="535"/>
      <point x="232" y="494"/>
      <point x="140" y="492" type="curve"/>
      <point x="140" y="473" type="line"/>
      <point x="226" y="471"/>
      <point x="304" y="443"/>
      <point x="304" y="358" type="curve" smooth="yes"/>
      <point x="304" y="297"/>
      <point x="263" y="256"/>
      <point x="181" y="256" type="curve" smooth="yes"/>
      <point x="89" y="256"/>
      <point x="70" y="308"/>
      <point x="65" y="336" type="curve"/>
      <point x="52" y="336"/>
      <point x="46" y="328"/>
      <point x="46" y="318" type="curve" smooth="yes"/>
      <point x="46" y="298"/>
      <point x="73" y="235"/>
      <point x="182" y="235" type="curve" smooth="yes"/>
    </contour>
  </outline>
</glyph>
<glyph name="periodcentered" format="1">
  <advance width="228"/>
  <unicode hex="00B7"/>
  <outline>
    <contour>
      <point x="132" y="211"/>
      <point x="148" y="227"/>
      <point x="148" y="245" type="curve" smooth="yes"/>
      <point x="148" y="263"/>
      <point x="132" y="279"/>
      <point x="114" y="279" type="curve" smooth="yes"/>
      <point x="96" y="279"/>
      <point x="80" y="263"/>
      <point x="80" y="245" type="curve" smooth="yes"/>
      <point x="80" y="227"/>
      <point x="96" y="211"/>
      <point x="114" y="211" type="curve" smooth="yes"/>
    </contour>
  </outline>
</glyph>
<glyph name="Oslash" format="1">
  <advance width="618"/>
  <unicode hex="00D8"/>
  <outline>
    <contour>
      <point x="92" y="-9"/>
      <point x="100" y="-13"/>
      <point x="110" y="-13" type="curve"/>
      <point x="517" y="688" type="line"/>
      <point x="513" y="696"/>
      <point x="506" y="701"/>
      <point x="496" y="701" type="curve"/>
      <point x="88" y="-1" type="line"/>
    </contour>
    <component base="O"/>
    <contour>
      <point x="309" y="688" type="move" name="top"/>
    </contour>
    <contour>
      <point x="309" y="0" type="move" name="bottom"/>
    </contour>
  </outline>
</glyph>
<glyph name="Thorn" format="1">
  <advance width="534"/>
  <unicode hex="00DE"/>
  <outline>
    <contour>
      <point x="376" y="152"/>
      <point x="474" y="218"/>
      <point x="474" y="369" type="curve" smooth="yes"/>
      <point x="474" y="502"/>
      <point x="397" y="570"/>
      <point x="203" y="570" type="curve" smooth="yes"/>
      <point x="183" y="570"/>
      <point x="137" y="569"/>
      <point x="123" y="568" type="curve"/>
      <point x="122" y="542" type="line"/>
      <point x="133" y="544"/>
      <point x="178" y="544"/>
      <point x="194" y="544" type="curve" smooth="yes"/>
      <point x="367" y="544"/>
      <point x="442" y="494"/>
      <point x="442" y="368" type="curve" smooth="yes"/>
      <point x="442" y="234"/>
      <point x="356" y="177"/>
      <point x="180" y="177" type="curve" smooth="yes"/>
      <point x="141" y="177"/>
      <point x="129" y="177"/>
      <point x="116" y="179" type="curve"/>
      <point x="123" y="153" type="line"/>
      <point x="137" y="152"/>
      <point x="150" y="152"/>
      <point x="169" y="152" type="curve" smooth="yes"/>
    </contour>
    <contour>
      <point x="135" y="-8"/>
      <point x="140" y="-4"/>
      <point x="144" y="0" type="curve"/>
      <point x="140" y="16"/>
      <point x="138" y="47"/>
      <point x="138" y="87" type="curve" smooth="yes"/>
      <point x="136" y="673" type="line" smooth="yes"/>
      <point x="136" y="687"/>
      <point x="130" y="695"/>
      <point x="119" y="695" type="curve" smooth="yes"/>
      <point x="110" y="695"/>
      <point x="105" y="691"/>
      <point x="101" y="687" type="curve"/>
      <point x="105" y="671"/>
      <point x="107" y="640"/>
      <point x="107" y="600" type="curve" smooth="yes"/>
      <point x="109" y="14" type="line" smooth="yes"/>
      <point x="109" y="0"/>
      <point x="115" y="-8"/>
      <point x="126" y="-8" type="curve" smooth="yes"/>
    </contour>
    <contour>
      <point x="300" y="688" type="move" name="top"/>
    </contour>
    <contour>
      <point x="300" y="0" type="move" name="bottom"/>
    </contour>
  </outline>
</glyph>
<glyph name="germandbls" format="1">
  <advance width="589"/>
  <unicode hex="00DF"/>
  <outline>
    <contour>
      <point x="122" y="-8"/>
      <point x="129" y="-2"/>
      <point x="131" y="0" type="curve"/>
      <point x="126" y="26"/>
      <point x="125" y="45"/>
      <point x="126" y="446" type="curve" smooth="yes"/>
      <point x="126" y="593"/>
      <point x="161" y="700"/>
      <point x="295" y="700" type="curve" smooth="yes"/>
      <point x="368" y="700"/>
      <point x="424" y="668"/>
      <point x="424" y="590" type="curve" smooth="yes"/>
      <point x="424" y="464"/>
      <point x="278" y="468"/>
      <point x="278" y="367" type="curve" smooth="yes"/>
      <point x="278" y="318"/>
      <point x="312" y="283"/>
      <point x="398" y="239" type="curve" smooth="yes"/>
      <point x="449" y="213"/>
      <point x="511" y="185"/>
      <point x="511" y="116" type="curve" smooth="yes"/>
      <point x="511" y="49"/>
      <point x="454" y="16"/>
      <point x="379" y="16" type="curve" smooth="yes"/>
      <point x="316" y="16"/>
      <point x="258" y="39"/>
      <point x="258" y="114" type="curve" smooth="yes"/>
      <point x="258" y="128"/>
      <point x="260" y="146"/>
      <point x="264" y="156" type="curve"/>
      <point x="258" y="157"/>
      <point x="254" y="158"/>
      <point x="246" y="156" type="curve" smooth="yes"/>
      <point x="226" y="151"/>
      <point x="224" y="133"/>
      <point x="224" y="118" type="curve" smooth="yes"/>
      <point x="224" y="47"/>
      <point x="267" y="-12"/>
      <point x="381" y="-12" type="curve" smooth="yes"/>
      <point x="506" y="-12"/>
      <point x="543" y="58"/>
      <point x="543" y="118" type="curve" smooth="yes"/>
      <point x="543" y="198"/>
      <point x="479" y="233"/>
      <point x="416" y="267" type="curve" smooth="yes"/>
      <point x="355" y="300"/>
      <point x="310" y="325"/>
      <point x="310" y="371" type="curve" smooth="yes"/>
      <point x="310" y="453"/>
      <point x="456" y="447"/>
      <point x="456" y="593" type="curve" smooth="yes"/>
      <point x="456" y="688"/>
      <point x="395" y="728"/>
      <point x="300" y="728" type="curve" smooth="yes"/>
      <point x="169" y="728"/>
      <point x="97" y="651"/>
      <point x="97" y="456" type="curve" smooth="yes"/>
      <point x="97" y="14" type="line" smooth="yes"/>
      <point x="97" y="-1"/>
      <point x="98" y="-8"/>
      <point x="110" y="-8" type="curve" smooth="yes"/>
    </contour>
    <contour>
      <point x="269" y="500" type="move" name="top"/>
    </contour>
    <contour>
      <point x="269" y="0" type="move" name="bottom"/>
    </contour>
  </outline>
</glyph>
<glyph name="eth" format="1">
  <advance width="497"/>
  <unicode hex="00F0"/>
  <outline>
    <contour>
      <point x="395" y="-12"/>
      <point x="444" y="117"/>
      <point x="444" y="284" type="curve" smooth="yes"/>
      <point x="444" y="523"/>
      <point x="343" y="728"/>
      <point x="165" y="728" type="curve" smooth="yes"/>
      <point x="154" y="728"/>
      <point x="140" y="711"/>
      <point x="145" y="698" type="curve"/>
      <point x="148" y="698"/>
      <point x="159" y="699"/>
      <point x="170" y="699" type="curve" smooth="yes"/>
      <point x="276" y="699"/>
      <point x="398" y="550"/>
      <point x="406" y="350" type="curve"/>
      <point x="417" y="371" type="line"/>
      <point x="411" y="454"/>
      <point x="337" y="493"/>
      <point x="258" y="493" type="curve" smooth="yes"/>
      <point x="124" y="493"/>
      <point x="53" y="380"/>
      <point x="53" y="234" type="curve" smooth="yes"/>
      <point x="53" y="149"/>
      <point x="72" y="-12"/>
      <point x="242" y="-12" type="curve" smooth="yes"/>
    </contour>
    <contour>
      <point x="111" y="16"/>
      <point x="85" y="150"/>
      <point x="85" y="246" type="curve" smooth="yes"/>
      <point x="85" y="379"/>
      <point x="151" y="465"/>
      <point x="258" y="465" type="curve" smooth="yes"/>
      <point x="380" y="465"/>
      <point x="411" y="354"/>
      <point x="411" y="266" type="curve" smooth="yes"/>
      <point x="411" y="132"/>
      <point x="362" y="16"/>
      <point x="241" y="16" type="curve" smooth="yes"/>
    </contour>
    <contour>
      <point x="216" y="574"/>
      <point x="219" y="566"/>
      <point x="227" y="560" type="curve"/>
      <point x="429" y="667" type="line"/>
      <point x="429" y="677"/>
      <point x="426" y="685"/>
      <point x="418" y="689" type="curve"/>
      <point x="216" y="582" type="line"/>
    </contour>
  </outline>
</glyph>
<glyph name="oslash" format="1">
  <advance width="534"/>
  <unicode hex="00F8"/>
  <outline>
    <contour>
      <point x="111" y="-5"/>
      <point x="117" y="-8"/>
      <point x="127" y="-9" type="curve"/>
      <point x="431" y="499" type="line"/>
      <point x="427" y="507"/>
      <point x="419" y="512"/>
      <point x="409" y="512" type="curve"/>
      <point x="106" y="3" type="line"/>
    </contour>
    <component base="o"/>
    <contour>
      <point x="267" y="500" type="move" name="top"/>
    </contour>
  </outline>
</glyph>
<glyph name="thorn" format="1">
  <advance width="539"/>
  <unicode hex="00FE"/>
  <outline>
    <contour>
      <point x="125" y="-228"/>
      <point x="130" y="-224"/>
      <point x="134" y="-220" type="curve"/>
      <point x="131" y="-206"/>
      <point x="128" y="-146"/>
      <point x="128" y="-106" type="curve" smooth="yes"/>
      <point x="128" y="86" type="line"/>
      <point x="150" y="26"/>
      <point x="204" y="-9"/>
      <point x="280" y="-9" type="curve" smooth="yes"/>
      <point x="415" y="-9"/>
      <point x="486" y="102"/>
      <point x="486" y="278" type="curve" smooth="yes"/>
      <point x="486" y="356"/>
      <point x="472" y="512"/>
      <point x="320" y="512" type="curve" smooth="yes"/>
      <point x="184" y="512"/>
      <point x="122" y="388"/>
      <point x="105" y="271" type="curve"/>
      <point x="128" y="300" type="line"/>
      <point x="128" y="640" type="line" smooth="yes"/>
      <point x="129" y="692"/>
      <point x="131" y="709"/>
      <point x="134" y="720" type="curve"/>
      <point x="130" y="724"/>
      <point x="125" y="728"/>
      <point x="116" y="728" type="curve" smooth="yes"/>
      <point x="104" y="728"/>
      <point x="97" y="720"/>
      <point x="97" y="706" type="curve" smooth="yes"/>
      <point x="97" y="-206" type="line" smooth="yes"/>
      <point x="97" y="-220"/>
      <point x="104" y="-228"/>
      <point x="116" y="-228" type="curve" smooth="yes"/>
    </contour>
    <contour>
      <point x="152" y="19"/>
      <point x="128" y="126"/>
      <point x="128" y="214" type="curve" smooth="yes"/>
      <point x="128" y="370"/>
      <point x="203" y="484"/>
      <point x="318" y="484" type="curve" smooth="yes"/>
      <point x="442" y="484"/>
      <point x="454" y="350"/>
      <point x="454" y="276" type="curve" smooth="yes"/>
      <point x="454" y="101"/>
      <point x="386" y="19"/>
      <point x="277" y="19" type="curve" smooth="yes"/>
    </contour>
    <contour>
      <point x="291" y="500" type="move" name="top"/>
    </contour>
    <contour>
      <point x="291" y="0" type="move" name="bottom"/>
    </contour>
  </outline>
</glyph>
<glyph name="lslash" format="1">
  <advance width="251"/>
  <unicode hex="0142"/>
  <outline>
    <contour>
      <point x="35" y="164" type="line"/>
      <point x="208" y="405" type="line"/>
      <point x="188" y="420" type="line"/>
      <point x="15" y="178" type="line"/>
    </contour>
    <component base="l"/>
  </outline>
</glyph>
<glyph name="oe" format="1">
  <advance width="893"/>
  <unicode hex="0153"/>
  <outline>
    <contour>
      <point x="365" y="-12"/>
      <point x="434" y="39"/>
      <point x="464" y="131" type="curve"/>
      <point x="493" y="36"/>
      <point x="564" y="-12"/>
      <point x="664" y="-12" type="curve" smooth="yes"/>
      <point x="740" y="-12"/>
      <point x="806" y="15"/>
      <point x="831" y="72" type="curve" smooth="yes"/>
      <point x="843" y="100"/>
      <point x="835" y="110"/>
      <point x="823" y="115" type="curve"/>
      <point x="805" y="45"/>
      <point x="736" y="17"/>
      <point x="667" y="17" type="curve" smooth="yes"/>
      <point x="574" y="17"/>
      <point x="486" y="68"/>
      <point x="481" y="234" type="curve"/>
      <point x="513" y="229"/>
      <point x="549" y="224"/>
      <point x="597" y="224" type="curve" smooth="yes"/>
      <point x="750" y="224"/>
      <point x="834" y="274"/>
      <point x="834" y="375" type="curve" smooth="yes"/>
      <point x="834" y="463"/>
      <point x="771" y="512"/>
      <point x="672" y="512" type="curve" smooth="yes"/>
      <point x="566" y="512"/>
      <point x="496" y="457"/>
      <point x="466" y="363" type="curve"/>
      <point x="437" y="458"/>
      <point x="367" y="512"/>
      <point x="267" y="512" type="curve" smooth="yes"/>
      <point x="132" y="512"/>
      <point x="53" y="415"/>
      <point x="53" y="250" type="curve" smooth="yes"/>
      <point x="53" y="85"/>
      <point x="132" y="-12"/>
      <point x="267" y="-12" type="curve" smooth="yes"/>
    </contour>
    <contour>
      <point x="153" y="16"/>
      <point x="85" y="103"/>
      <point x="85" y="250" type="curve" smooth="yes"/>
      <point x="85" y="397"/>
      <point x="153" y="484"/>
      <point x="267" y="484" type="curve" smooth="yes"/>
      <point x="381" y="484"/>
      <point x="449" y="397"/>
      <point x="449" y="250" type="curve" smooth="yes"/>
      <point x="449" y="103"/>
      <point x="381" y="16"/>
      <point x="267" y="16" type="curve" smooth="yes"/>
    </contour>
    <contour>
      <point x="485" y="413"/>
      <point x="562" y="485"/>
      <point x="670" y="485" type="curve" smooth="yes"/>
      <point x="734" y="485"/>
      <point x="803" y="460"/>
      <point x="803" y="375" type="curve" smooth="yes"/>
      <point x="803" y="291"/>
      <point x="735" y="249"/>
      <point x="609" y="249" type="curve" smooth="yes"/>
      <point x="572" y="249"/>
      <point x="519" y="253"/>
      <point x="481" y="259" type="curve"/>
    </contour>
    <contour>
      <point x="162" y="0" type="move" name="bottom"/>
    </contour>
    <contour>
      <point x="477" y="10" type="move" name="ogonek"/>
    </contour>
    <contour>
      <point x="162" y="500" type="move" name="top"/>
    </contour>
    <contour>
      <point x="415" y="468" type="move" name="topright"/>
    </contour>
    <contour>
      <point x="263" y="250" type="move" name="center"/>
    </contour>
  </outline>
</glyph>
<glyph name="florin" format="1">
  <advance width="364"/>
  <unicode hex="0192"/>
  <outline>
    <contour>
      <point x="106" y="-200"/>
      <point x="112" y="-196"/>
      <point x="116" y="-192" type="curve"/>
      <point x="113" y="-176"/>
      <point x="112" y="-145"/>
      <point x="114" y="-105" type="curve" smooth="yes"/>
      <point x="151" y="574" type="line" smooth="yes"/>
      <point x="155" y="640"/>
      <point x="172" y="712"/>
      <point x="267" y="712" type="curve" smooth="yes"/>
      <point x="315" y="712"/>
      <point x="352" y="696"/>
      <point x="350" y="648" type="curve" smooth="yes"/>
      <point x="349" y="635"/>
      <point x="346" y="615"/>
      <point x="327" y="593" type="curve"/>
      <point x="329" y="592"/>
      <point x="331" y="592"/>
      <point x="333" y="592" type="curve" smooth="yes"/>
      <point x="348" y="592"/>
      <point x="377" y="613"/>
      <point x="379" y="656" type="curve" smooth="yes"/>
      <point x="382" y="711"/>
      <point x="333" y="740"/>
      <point x="271" y="740" type="curve" smooth="yes"/>
      <point x="147" y="740"/>
      <point x="123" y="643"/>
      <point x="120" y="577" type="curve" smooth="yes"/>
      <point x="82" y="-178" type="line" smooth="yes"/>
      <point x="81" y="-192"/>
      <point x="86" y="-200"/>
      <point x="97" y="-200" type="curve" smooth="yes"/>
    </contour>
    <contour>
      <point x="47" y="473"/>
      <point x="81" y="474"/>
      <point x="94" y="474" type="curve" smooth="yes"/>
      <point x="291" y="474" type="line" smooth="yes"/>
      <point x="297" y="474"/>
      <point x="301" y="480"/>
      <point x="302" y="488" type="curve" smooth="yes"/>
      <point x="304" y="502" type="line"/>
      <point x="294" y="501"/>
      <point x="262" y="500"/>
      <point x="252" y="500" type="curve" smooth="yes"/>
      <point x="47" y="500" type="line" smooth="yes"/>
      <point x="41" y="500"/>
      <point x="37" y="494"/>
      <point x="35" y="486" type="curve" smooth="yes"/>
      <point x="34" y="472" type="line"/>
    </contour>
    <contour>
      <point x="182" y="500" type="move" name="top"/>
    </contour>
    <contour>
      <point x="182" y="0" type="move" name="bottom"/>
    </contour>
  </outline>
</glyph>
<glyph name="ohorn" format="1">
  <advance width="534"/>
  <unicode hex="01A1"/>
  <outline>
    <component base="o"/>
    <component base="horncomb" xOffset="176" yOffset="-10"/>
    <contour>
      <point x="267" y="500" type="move" name="top"/>
    </contour>
    <contour>
      <point x="268" y="0" type="move" name="bottom"/>
    </contour>
  </outline>
</glyph>
<glyph name="gravecomb" format="1">
  <advance width="600"/>
  <unicode hex="0300"/>
  <outline>
    <component base="acutecomb" xScale="-1" xOffset="553"/>
    <contour>
      <point x="306" y="688" type="move" name="top"/>
    </contour>
    <contour>
      <point x="314" y="500" type="move" name="_top"/>
    </contour>
  </outline>
</glyph>
<glyph name="acutecomb" format="1">
  <advance width="600"/>
  <unicode hex="0301"/>
  <outline>
    <contour>
      <point x="351" y="698"/>
      <point x="339" y="701"/>
      <point x="320" y="702" type="curve"/>
      <point x="229" y="562" type="line"/>
      <point x="231" y="557"/>
      <point x="247" y="556"/>
      <point x="254" y="557" type="curve"/>
      <point x="365" y="689" type="line"/>
    </contour>
    <contour>
      <point x="322" y="677" type="move" name="top"/>
    </contour>
    <contour>
      <point x="252" y="500" type="move" name="_top"/>
    </contour>
  </outline>
</glyph>
<glyph name="circumflexcomb" format="1">
  <advance width="600"/>
  <unicode hex="0302"/>
  <outline>
    <contour>
      <point x="300" y="648" type="line"/>
      <point x="403" y="556" type="line"/>
      <point x="409" y="556"/>
      <point x="421" y="558"/>
      <point x="427" y="564" type="curve"/>
      <point x="317" y="682" type="line"/>
      <point x="305" y="684"/>
      <point x="294" y="684"/>
      <point x="282" y="682" type="curve"/>
      <point x="172" y="564" type="line"/>
      <point x="175" y="558"/>
      <point x="191" y="556"/>
      <point x="197" y="556" type="curve"/>
    </contour>
    <contour>
      <point x="300" y="623" type="move" name="top"/>
    </contour>
    <contour>
      <point x="300" y="500" type="move" name="_top"/>
    </contour>
  </outline>
</glyph>
<glyph name="tildecomb" format="1">
  <advance width="600"/>
  <unicode hex="0303"/>
  <outline>
    <contour>
      <point x="426" y="657"/>
      <point x="420" y="660"/>
      <point x="411" y="660" type="curve"/>
      <point x="401" y="633"/>
      <point x="390" y="613"/>
      <point x="362" y="613" type="curve" smooth="yes"/>
      <point x="313" y="613"/>
      <point x="296" y="664"/>
      <point x="241" y="664" type="curve" smooth="yes"/>
      <point x="205" y="664"/>
      <point x="170" y="642"/>
      <point x="160" y="597" type="curve"/>
      <point x="165" y="591"/>
      <point x="172" y="586"/>
      <point x="179" y="587" type="curve"/>
      <point x="187" y="617"/>
      <point x="212" y="633"/>
      <point x="238" y="633" type="curve" smooth="yes"/>
      <point x="285" y="633"/>
      <point x="302" y="582"/>
      <point x="357" y="582" type="curve" smooth="yes"/>
      <point x="395" y="582"/>
      <point x="423" y="612"/>
      <point x="431" y="651" type="curve"/>
    </contour>
    <contour>
      <point x="300" y="668" type="move" name="top"/>
    </contour>
    <contour>
      <point x="296" y="500" type="move" name="_top"/>
    </contour>
  </outline>
</glyph>
<glyph name="macroncomb" format="1">
  <advance width="600"/>
  <unicode hex="0304"/>
  <outline>
    <contour>
      <point x="178" y="618"/>
      <point x="178" y="608"/>
      <point x="182" y="599" type="curve"/>
      <point x="417" y="599" type="line"/>
      <point x="421" y="608"/>
      <point x="421" y="618"/>
      <point x="417" y="627" type="curve"/>
      <point x="182" y="627" type="line"/>
    </contour>
    <contour>
      <point x="300" y="631" type="move" name="top"/>
    </contour>
    <contour>
      <point x="300" y="500" type="move" name="_top"/>
    </contour>
  </outline>
</glyph>
<glyph name="brevecomb" format="1">
  <advance width="600"/>
  <unicode hex="0306"/>
  <outline>
    <contour>
      <point x="229" y="592"/>
      <point x="197" y="644"/>
      <point x="186" y="673" type="curve"/>
      <point x="176" y="671"/>
      <point x="168" y="668"/>
      <point x="160" y="662" type="curve"/>
      <point x="169" y="626"/>
      <point x="209" y="562"/>
      <point x="299" y="562" type="curve" smooth="yes"/>
      <point x="370" y="562"/>
      <point x="417" y="612"/>
      <point x="431" y="666" type="curve"/>
      <point x="422" y="669"/>
      <point x="413" y="670"/>
      <point x="404" y="671" type="curve"/>
      <point x="395" y="646"/>
      <point x="370" y="592"/>
      <point x="299" y="592" type="curve" smooth="yes"/>
    </contour>
    <contour>
      <point x="297" y="596" type="move" name="top"/>
    </contour>
    <contour>
      <point x="299" y="500" type="move" name="_top"/>
    </contour>
  </outline>
</glyph>
<glyph name="dotaccentcomb" format="1">
  <advance width="600"/>
  <unicode hex="0307"/>
  <outline>
    <contour>
      <point x="315" y="573"/>
      <point x="331" y="589"/>
      <point x="331" y="607" type="curve" smooth="yes"/>
      <point x="331" y="625"/>
      <point x="315" y="641"/>
      <point x="297" y="641" type="curve" smooth="yes"/>
      <point x="279" y="641"/>
      <point x="263" y="625"/>
      <point x="263" y="607" type="curve" smooth="yes"/>
      <point x="263" y="589"/>
      <point x="279" y="573"/>
      <point x="297" y="573" type="curve" smooth="yes"/>
    </contour>
    <contour>
      <point x="303" y="0" type="move" name="top"/>
    </contour>
    <contour>
      <point x="299" y="500" type="move" name="_top"/>
    </contour>
  </outline>
</glyph>
<glyph name="dieresiscomb" format="1">
  <advance width="600"/>
  <unicode hex="0308"/>
  <outline>
    <contour>
      <point x="238" y="587"/>
      <point x="254" y="603"/>
      <point x="254" y="621" type="curve" smooth="yes"/>
      <point x="254" y="639"/>
      <point x="238" y="655"/>
      <point x="220" y="655" type="curve" smooth="yes"/>
      <point x="202" y="655"/>
      <point x="186" y="639"/>
      <point x="186" y="621" type="curve" smooth="yes"/>
      <point x="186" y="603"/>
      <point x="202" y="587"/>
      <point x="220" y="587" type="curve" smooth="yes"/>
    </contour>
    <contour>
      <point x="398" y="587"/>
      <point x="414" y="603"/>
      <point x="414" y="621" type="curve" smooth="yes"/>
      <point x="414" y="639"/>
      <point x="398" y="655"/>
      <point x="380" y="655" type="curve" smooth="yes"/>
      <point x="362" y="655"/>
      <point x="346" y="639"/>
      <point x="346" y="621" type="curve" smooth="yes"/>
      <point x="346" y="603"/>
      <point x="362" y="587"/>
      <point x="380" y="587" type="curve" smooth="yes"/>
    </contour>
    <contour>
      <point x="297" y="612" type="move" name="top"/>
    </contour>
    <contour>
      <point x="297" y="500" type="move" name="_top"/>
    </contour>
  </outline>
</glyph>
<glyph name="ringcomb" format="1">
  <advance width="600"/>
  <unicode hex="030A"/>
  <outline>
    <contour>
      <point x="252" y="706"/>
      <point x="218" y="675"/>
      <point x="218" y="626" type="curve" smooth="yes"/>
      <point x="218" y="580"/>
      <point x="250" y="550"/>
      <point x="298" y="550" type="curve" smooth="yes"/>
      <point x="348" y="550"/>
      <point x="381" y="581"/>
      <point x="382" y="630" type="curve" smooth="yes"/>
      <point x="382" y="676"/>
      <point x="350" y="706"/>
      <point x="302" y="706" type="curve" smooth="yes"/>
    </contour>
    <contour>
      <point x="334" y="684"/>
      <point x="356" y="662"/>
      <point x="356" y="628" type="curve" smooth="yes"/>
      <point x="356" y="594"/>
      <point x="334" y="572"/>
      <point x="300" y="572" type="curve" smooth="yes"/>
      <point x="266" y="572"/>
      <point x="244" y="594"/>
      <point x="244" y="628" type="curve" smooth="yes"/>
      <point x="244" y="662"/>
      <point x="266" y="684"/>
      <point x="300" y="684" type="curve" smooth="yes"/>
    </contour>
    <contour>
      <point x="300" y="714" type="move" name="top"/>
    </contour>
    <contour>
      <point x="298" y="500" type="move" name="_top"/>
    </contour>
  </outline>
</glyph>
<glyph name="horncomb" format="1">
  <advance width="600"/>
  <unicode hex="031B"/>
  <outline>
    <contour>
      <point x="228" y="495"/>
      <point x="257" y="520"/>
      <point x="257" y="563" type="curve" smooth="yes"/>
      <point x="257" y="580"/>
      <point x="251" y="605"/>
      <point x="234" y="623" type="curve"/>
      <point x="221" y="618"/>
      <point x="209" y="609"/>
      <point x="201" y="602" type="curve"/>
      <point x="217" y="583"/>
      <point x="219" y="566"/>
      <point x="219" y="557" type="curve" smooth="yes"/>
      <point x="219" y="532"/>
      <point x="204" y="516"/>
      <point x="168" y="503" type="curve"/>
      <point x="177" y="480" type="line"/>
    </contour>
    <contour>
      <point x="196" y="500" type="move" name="_topright"/>
    </contour>
    <contour>
      <point x="195" y="500" type="move" name="topright"/>
    </contour>
  </outline>
</glyph>
<glyph name="dieresisbelowcomb" format="1">
  <advance width="600"/>
  <unicode hex="0324"/>
  <outline>
    <contour>
      <point x="238" y="-131"/>
      <point x="254" y="-115"/>
      <point x="254" y="-97" type="curve" smooth="yes"/>
      <point x="254" y="-79"/>
      <point x="238" y="-63"/>
      <point x="220" y="-63" type="curve" smooth="yes"/>
      <point x="202" y="-63"/>
      <point x="186" y="-79"/>
      <point x="186" y="-97" type="curve" smooth="yes"/>
      <point x="186" y="-115"/>
      <point x="202" y="-131"/>
      <point x="220" y="-131" type="curve" smooth="yes"/>
    </contour>
    <contour>
      <point x="398" y="-131"/>
      <point x="414" y="-115"/>
      <point x="414" y="-97" type="curve" smooth="yes"/>
      <point x="414" y="-79"/>
      <point x="398" y="-63"/>
      <point x="380" y="-63" type="curve" smooth="yes"/>
      <point x="362" y="-63"/>
      <point x="346" y="-79"/>
      <point x="346" y="-97" type="curve" smooth="yes"/>
      <point x="346" y="-115"/>
      <point x="362" y="-131"/>
      <point x="380" y="-131" type="curve" smooth="yes"/>
    </contour>
    <contour>
      <point x="294" y="0" type="move" name="_bottom"/>
    </contour>
    <contour>
      <point x="298" y="0" type="move" name="bottom"/>
    </contour>
  </outline>
</glyph>
<glyph name="commaaccentcomb" format="1">
  <advance width="600"/>
  <unicode hex="0326"/>
  <outline>
    <contour>
      <point x="333" y="-142"/>
      <point x="343" y="-106"/>
      <point x="343" y="-81" type="curve" smooth="yes"/>
      <point x="343" y="-41"/>
      <point x="319" y="-34"/>
      <point x="304" y="-34" type="curve" smooth="yes"/>
      <point x="277" y="-34"/>
      <point x="267" y="-58"/>
      <point x="267" y="-68" type="curve"/>
      <point x="282" y="-74"/>
      <point x="294" y="-84"/>
      <point x="294" y="-109" type="curve" smooth="yes"/>
      <point x="294" y="-130"/>
      <point x="286" y="-147"/>
      <point x="268" y="-166" type="curve"/>
      <point x="271" y="-171"/>
      <point x="276" y="-177"/>
      <point x="286" y="-180" type="curve"/>
    </contour>
    <contour>
      <point x="298" y="0" type="move" name="_bottom"/>
    </contour>
    <contour>
      <point x="234" y="0" type="move" name="bottom"/>
    </contour>
  </outline>
</glyph>
<glyph name="ogonekcomb" format="1">
  <advance width="600"/>
  <unicode hex="0328"/>
  <outline>
    <contour>
      <point x="345" y="-168"/>
      <point x="383" y="-149"/>
      <point x="401" y="-111" type="curve"/>
      <point x="403" y="-103"/>
      <point x="400" y="-97"/>
      <point x="394" y="-93" type="curve"/>
      <point x="383" y="-112"/>
      <point x="353" y="-144"/>
      <point x="311" y="-144" type="curve" smooth="yes"/>
      <point x="276" y="-144"/>
      <point x="258" y="-122"/>
      <point x="258" y="-90" type="curve" smooth="yes"/>
      <point x="258" y="-49"/>
      <point x="287" y="-26"/>
      <point x="339" y="-2" type="curve"/>
      <point x="328" y="13" type="line"/>
      <point x="278" y="-4"/>
      <point x="226" y="-37"/>
      <point x="226" y="-94" type="curve" smooth="yes"/>
      <point x="226" y="-144"/>
      <point x="265" y="-168"/>
      <point x="307" y="-168" type="curve" smooth="yes"/>
    </contour>
    <contour>
      <point x="321" y="0" type="move" name="_ogonek"/>
    </contour>
  </outline>
</glyph>
<glyph name="macronbelowcomb" format="1">
  <advance width="600"/>
  <unicode hex="0331"/>
  <outline>
    <contour>
      <point x="178" y="-81"/>
      <point x="178" y="-91"/>
      <point x="182" y="-100" type="curve"/>
      <point x="417" y="-100" type="line"/>
      <point x="421" y="-91"/>
      <point x="421" y="-81"/>
      <point x="417" y="-72" type="curve"/>
      <point x="182" y="-72" type="line"/>
    </contour>
    <contour>
      <point x="293" y="0" type="move" name="_bottom"/>
    </contour>
    <contour>
      <point x="295" y="0" type="move" name="bottom"/>
    </contour>
  </outline>
</glyph>
<glyph name="tonos" format="1">
  <advance width="600"/>
  <unicode hex="0384"/>
  <outline>
    <contour>
      <point x="325" y="728"/>
      <point x="315" y="731"/>
      <point x="300" y="732" type="curve"/>
      <point x="229" y="562" type="line"/>
      <point x="231" y="557"/>
      <point x="246" y="556"/>
      <point x="252" y="557" type="curve"/>
      <point x="336" y="719" type="line"/>
    </contour>
    <contour>
      <point x="297" y="688" type="move" name="top"/>
    </contour>
    <contour>
      <point x="242" y="500" type="move" name="_top"/>
    </contour>
  </outline>
</glyph>
<glyph name="dieresistonos" format="1">
  <advance width="600"/>
  <unicode hex="0385"/>
  <outline>
    <contour>
      <point x="331" y="743" type="line"/>
      <point x="319" y="750"/>
      <point x="308" y="752"/>
      <point x="291" y="752" type="curve"/>
      <point x="271" y="594" type="line"/>
      <point x="273" y="589"/>
      <point x="288" y="588"/>
      <point x="294" y="589" type="curve"/>
    </contour>
    <contour>
      <point x="230" y="587"/>
      <point x="240" y="604"/>
      <point x="240" y="623" type="curve" smooth="yes"/>
      <point x="240" y="642"/>
      <point x="230" y="659"/>
      <point x="210" y="659" type="curve" smooth="yes"/>
      <point x="190" y="659"/>
      <point x="179" y="642"/>
      <point x="179" y="623" type="curve" smooth="yes"/>
      <point x="179" y="604"/>
      <point x="190" y="587"/>
      <point x="210" y="587" type="curve" smooth="yes"/>
    </contour>
    <contour>
      <point x="390" y="587"/>
      <point x="400" y="604"/>
      <point x="400" y="623" type="curve" smooth="yes"/>
      <point x="400" y="642"/>
      <point x="390" y="659"/>
      <point x="370" y="659" type="curve" smooth="yes"/>
      <point x="350" y="659"/>
      <point x="339" y="642"/>
      <point x="339" y="623" type="curve" smooth="yes"/>
      <point x="339" y="604"/>
      <point x="350" y="587"/>
      <point x="370" y="587" type="curve" smooth="yes"/>
    </contour>
    <contour>
      <point x="287" y="500" type="move" name="_top"/>
    </contour>
  </outline>
</glyph>
<glyph name="Delta" format="1">
  <advance width="583"/>
  <unicode hex="0394"/>
  <outline>
    <contour>
      <point x="548" y="0" type="line" smooth="yes"/>
      <point x="555" y="0"/>
      <point x="561" y="2"/>
      <point x="568" y="9" type="curve"/>
      <point x="563" y="15"/>
      <point x="556" y="26"/>
      <point x="552" y="39" type="curve" smooth="yes"/>
      <point x="316" y="679" type="line" smooth="yes"/>
      <point x="312" y="690"/>
      <point x="303" y="696"/>
      <point x="291" y="696" type="curve" smooth="yes"/>
      <point x="284" y="696"/>
      <point x="277" y="694"/>
      <point x="269" y="688" type="curve"/>
      <point x="26" y="26" type="line" smooth="yes"/>
      <point x="22" y="13"/>
      <point x="30" y="0"/>
      <point x="44" y="0" type="curve" smooth="yes"/>
    </contour>
    <contour>
      <point x="294" y="674" type="line"/>
      <point x="286" y="674" type="line"/>
      <point x="528" y="13" type="line"/>
      <point x="537" y="26" type="line"/>
      <point x="46" y="26" type="line"/>
      <point x="55" y="13" type="line"/>
    </contour>
  </outline>
</glyph>
<glyph name="Lambda" format="1">
  <advance width="570"/>
  <unicode hex="039B"/>
  <outline>
    <contour>
      <point x="273" y="696"/>
      <point x="266" y="694"/>
      <point x="258" y="688" type="curve"/>
      <point x="16" y="30" type="line" smooth="yes"/>
      <point x="13" y="23"/>
      <point x="10" y="13"/>
      <point x="10" y="6" type="curve" smooth="yes"/>
      <point x="10" y="-5"/>
      <point x="18" y="-12"/>
      <point x="31" y="-12" type="curve" smooth="yes"/>
      <point x="36" y="-12"/>
      <point x="40" y="-12"/>
      <point x="45" y="-10" type="curve"/>
      <point x="43" y="-6"/>
      <point x="43" y="0"/>
      <point x="43" y="4" type="curve" smooth="yes"/>
      <point x="43" y="10"/>
      <point x="46" y="20"/>
      <point x="48" y="25" type="curve" smooth="yes"/>
      <point x="286" y="682" type="line"/>
      <point x="272" y="682" type="line"/>
      <point x="520" y="2" type="line" smooth="yes"/>
      <point x="523" y="-7"/>
      <point x="531" y="-12"/>
      <point x="540" y="-12" type="curve" smooth="yes"/>
      <point x="547" y="-12"/>
      <point x="553" y="-10"/>
      <point x="560" y="-3" type="curve"/>
      <point x="555" y="3"/>
      <point x="549" y="14"/>
      <point x="544" y="27" type="curve" smooth="yes"/>
      <point x="305" y="679" type="line" smooth="yes"/>
      <point x="301" y="690"/>
      <point x="292" y="696"/>
      <point x="280" y="696" type="curve" smooth="yes"/>
    </contour>
  </outline>
</glyph>
<glyph name="Pi" format="1">
  <advance width="662"/>
  <unicode hex="03A0"/>
  <outline>
    <contour>
      <point x="135" y="-12"/>
      <point x="140" y="-8"/>
      <point x="144" y="-4" type="curve"/>
      <point x="140" y="12"/>
      <point x="138" y="43"/>
      <point x="138" y="83" type="curve" smooth="yes"/>
      <point x="138" y="662" type="line"/>
      <point x="554" y="662" type="line"/>
      <point x="554" y="10" type="line" smooth="yes"/>
      <point x="554" y="-4"/>
      <point x="560" y="-12"/>
      <point x="571" y="-12" type="curve" smooth="yes"/>
      <point x="580" y="-12"/>
      <point x="585" y="-8"/>
      <point x="589" y="-4" type="curve"/>
      <point x="585" y="12"/>
      <point x="583" y="43"/>
      <point x="583" y="83" type="curve" smooth="yes"/>
      <point x="585" y="600" type="line" smooth="yes"/>
      <point x="585" y="640"/>
      <point x="587" y="671"/>
      <point x="591" y="687" type="curve"/>
      <point x="579" y="688"/>
      <point x="566" y="688"/>
      <point x="558" y="688" type="curve" smooth="yes"/>
      <point x="134" y="688" type="line" smooth="yes"/>
      <point x="126" y="688"/>
      <point x="113" y="688"/>
      <point x="101" y="687" type="curve"/>
      <point x="105" y="671"/>
      <point x="107" y="640"/>
      <point x="107" y="600" type="curve" smooth="yes"/>
      <point x="109" y="10" type="line" smooth="yes"/>
      <point x="109" y="-4"/>
      <point x="115" y="-12"/>
      <point x="126" y="-12" type="curve" smooth="yes"/>
    </contour>
    <contour>
      <point x="20" y="688" type="move" name="topleft"/>
    </contour>
  </outline>
</glyph>
<glyph name="delta" format="1">
  <advance width="533"/>
  <unicode hex="03B4"/>
  <outline>
    <contour>
      <point x="409" y="-12"/>
      <point x="488" y="84"/>
      <point x="488" y="247" type="curve" smooth="yes"/>
      <point x="488" y="356"/>
      <point x="435" y="440"/>
      <point x="340" y="492" type="curve" smooth="yes"/>
      <point x="243" y="545" type="line" smooth="yes"/>
      <point x="178.9283901493376" y="580.0081991967537"/>
      <point x="157.0" y="599.7692307692307"/>
      <point x="157" y="634" type="curve" smooth="yes"/>
      <point x="157.0" y="676.0"/>
      <point x="197.5" y="700.0"/>
      <point x="265" y="700" type="curve" smooth="yes"/>
      <point x="360.72093023255815" y="700.0"/>
      <point x="429.5636213564526" y="655.2911942274003"/>
      <point x="433" y="590" type="curve"/>
      <point x="447" y="590"/>
      <point x="457" y="600"/>
      <point x="457" y="614" type="curve" smooth="yes"/>
      <point x="457.0" y="676.7"/>
      <point x="369.825641025641" y="728.0"/>
      <point x="266" y="728" type="curve" smooth="yes"/>
      <point x="179.54744525547443" y="728.0"/>
      <point x="125.0" y="690.0"/>
      <point x="125" y="631" type="curve" smooth="yes"/>
      <point x="125.0" y="588.7678571428571"/>
      <point x="157.54433608204457" y="556.4312578154918"/>
      <point x="225" y="521" type="curve" smooth="yes"/>
      <point x="324" y="469" type="line" smooth="yes"/>
      <point x="411" y="423"/>
      <point x="456" y="349"/>
      <point x="456" y="247" type="curve" smooth="yes"/>
      <point x="456" y="102"/>
      <point x="388" y="16"/>
      <point x="274" y="16" type="curve" smooth="yes"/>
      <point x="160.0" y="16.0"/>
      <point x="92" y="102"/>
      <point x="92" y="243" type="curve" smooth="yes"/>
      <point x="92" y="386"/>
      <point x="180.0" y="477.0"/>
      <point x="316" y="477" type="curve"/>
      <point x="295" y="502" type="line"/>
      <point x="163.0" y="502.0"/>
      <point x="60" y="390"/>
      <point x="60" y="243" type="curve" smooth="yes"/>
      <point x="60" y="84"/>
      <point x="139.0" y="-12.0"/>
      <point x="274" y="-12" type="curve" smooth="yes"/>
    </contour>
  </outline>
</glyph>
<glyph name="epsilon" format="1">
  <advance width="470"/>
  <unicode hex="03B5"/>
  <outline>
    <contour>
      <point x="380" y="-12"/>
      <point x="455" y="43"/>
      <point x="455" y="97" type="curve" smooth="yes"/>
      <point x="455" y="103"/>
      <point x="452" y="111"/>
      <point x="441" y="115" type="curve"/>
      <point x="415" y="32"/>
      <point x="330" y="16"/>
      <point x="249" y="16" type="curve" smooth="yes"/>
      <point x="155" y="16"/>
      <point x="82" y="52"/>
      <point x="82" y="127" type="curve" smooth="yes"/>
      <point x="82" y="186"/>
      <point x="136" y="234"/>
      <point x="226" y="243" type="curve"/>
      <point x="224" y="260" type="line"/>
      <point x="158.00605811420553" y="267.9992656831266"/>
      <point x="102" y="307"/>
      <point x="102" y="374" type="curve" smooth="yes"/>
      <point x="102.0" y="437.0"/>
      <point x="162.6038961038961" y="484.0"/>
      <point x="255" y="484" type="curve" smooth="yes"/>
      <point x="342" y="484"/>
      <point x="391" y="453"/>
      <point x="391" y="419" type="curve" smooth="yes"/>
      <point x="391" y="401"/>
      <point x="386" y="389"/>
      <point x="362" y="375" type="curve"/>
      <point x="369" y="368"/>
      <point x="376" y="365"/>
      <point x="383" y="365" type="curve" smooth="yes"/>
      <point x="403" y="365"/>
      <point x="421" y="388"/>
      <point x="421" y="419" type="curve" smooth="yes"/>
      <point x="421" y="471"/>
      <point x="369" y="512"/>
      <point x="259" y="512" type="curve" smooth="yes"/>
      <point x="146.59473684210528" y="512.0"/>
      <point x="70.0" y="452.0"/>
      <point x="70" y="371" type="curve" smooth="yes"/>
      <point x="70" y="313"/>
      <point x="118" y="255"/>
      <point x="189" y="244" type="curve"/>
      <point x="177" y="256" type="line"/>
      <point x="91" y="234"/>
      <point x="50.0" y="181.70149253731344"/>
      <point x="50" y="125" type="curve" smooth="yes"/>
      <point x="50" y="41"/>
      <point x="125" y="-12"/>
      <point x="251" y="-12" type="curve" smooth="yes"/>
    </contour>
    <contour>
      <point x="330" y="233"/>
      <point x="339" y="246"/>
      <point x="339" y="257" type="curve" smooth="yes"/>
      <point x="339" y="261"/>
      <point x="338" y="264"/>
      <point x="336" y="267" type="curve"/>
      <point x="294" y="266"/>
      <point x="254" y="265"/>
      <point x="205" y="262" type="curve"/>
      <point x="205" y="241" type="line"/>
      <point x="229" y="238"/>
      <point x="262" y="233"/>
      <point x="306" y="233" type="curve" smooth="yes"/>
    </contour>
    <contour>
      <point x="252.0" y="500.0" type="move" name="top"/>
    </contour>
  </outline>
</glyph>
<glyph name="eta" format="1">
  <advance width="578"/>
  <unicode hex="03B7"/>
  <outline>
    <contour>
      <point x="486" y="-230"/>
      <point x="493" y="-224"/>
      <point x="494" y="-221" type="curve"/>
      <point x="487" y="-208"/>
      <point x="486" y="-177"/>
      <point x="486" y="-149" type="curve" smooth="yes"/>
      <point x="486" y="330" type="line" smooth="yes"/>
      <point x="486" y="468"/>
      <point x="436" y="512"/>
      <point x="353" y="512" type="curve" smooth="yes"/>
      <point x="275" y="512"/>
      <point x="185" y="453"/>
      <point x="137" y="313" type="curve"/>
      <point x="149" y="307" type="line"/>
      <point x="161" y="473"/>
      <point x="135" y="512"/>
      <point x="83" y="512" type="curve" smooth="yes"/>
      <point x="62" y="512"/>
      <point x="36" y="501"/>
      <point x="36" y="480" type="curve" smooth="yes"/>
      <point x="36" y="472"/>
      <point x="40" y="465"/>
      <point x="45" y="460" type="curve"/>
      <point x="50" y="473"/>
      <point x="62" y="484"/>
      <point x="81" y="484" type="curve" smooth="yes"/>
      <point x="132" y="484"/>
      <point x="122" y="391"/>
      <point x="122" y="260" type="curve"/>
      <point x="121" y="41" type="line" smooth="yes"/>
      <point x="121" y="8"/>
      <point x="123" y="-12"/>
      <point x="142" y="-12" type="curve" smooth="yes"/>
      <point x="150" y="-12"/>
      <point x="155" y="-8"/>
      <point x="159" y="-3" type="curve"/>
      <point x="155" y="6"/>
      <point x="151" y="23"/>
      <point x="151" y="56" type="curve" smooth="yes"/>
      <point x="151" y="249" type="line" smooth="yes"/>
      <point x="151" y="316"/>
      <point x="229" y="484"/>
      <point x="353" y="484" type="curve" smooth="yes"/>
      <point x="436" y="484"/>
      <point x="456" y="423"/>
      <point x="456" y="338" type="curve" smooth="yes"/>
      <point x="456" y="-176" type="line" smooth="yes"/>
      <point x="456" y="-210"/>
      <point x="458" y="-230"/>
      <point x="478" y="-230" type="curve" smooth="yes"/>
    </contour>
    <contour>
      <point x="307" y="500" type="move" name="top"/>
    </contour>
  </outline>
</glyph>
<glyph name="theta" format="1">
  <advance width="572"/>
  <unicode hex="03B8"/>
  <outline>
    <contour>
      <point x="431" y="-12"/>
      <point x="512" y="126"/>
      <point x="512" y="359" type="curve" smooth="yes"/>
      <point x="512" y="591"/>
      <point x="417" y="728"/>
      <point x="291" y="728" type="curve" smooth="yes"/>
      <point x="156" y="728"/>
      <point x="70" y="591"/>
      <point x="70" y="359" type="curve" smooth="yes"/>
      <point x="70" y="126"/>
      <point x="151" y="-12"/>
      <point x="291" y="-12" type="curve" smooth="yes"/>
    </contour>
    <contour>
      <point x="173" y="16"/>
      <point x="101" y="132"/>
      <point x="101" y="359" type="curve" smooth="yes"/>
      <point x="101" y="586"/>
      <point x="183" y="700"/>
      <point x="289" y="700" type="curve" smooth="yes"/>
      <point x="395" y="700"/>
      <point x="480" y="586"/>
      <point x="480" y="359" type="curve" smooth="yes"/>
      <point x="480" y="132"/>
      <point x="409" y="16"/>
      <point x="291" y="16" type="curve" smooth="yes"/>
    </contour>
    <contour>
      <point x="87" y="354"/>
      <point x="87" y="345"/>
      <point x="93" y="334" type="curve"/>
      <point x="259" y="336"/>
      <point x="349" y="334"/>
      <point x="489" y="335" type="curve"/>
      <point x="485" y="362" type="line"/>
      <point x="339" y="358"/>
      <point x="244" y="358"/>
      <point x="81" y="360" type="curve"/>
    </contour>
  </outline>
</glyph>
<glyph name="xi" format="1">
  <advance width="480"/>
  <unicode hex="03BE"/>
  <outline>
    <contour>
      <point x="388" y="-187"/>
      <point x="420" y="-155"/>
      <point x="420" y="-105" type="curve" smooth="yes"/>
      <point x="420" y="-27"/>
      <point x="326" y="-5"/>
      <point x="297" y="6" type="curve" smooth="yes"/>
      <point x="253" y="22" type="line" smooth="yes"/>
      <point x="184" y="45"/>
      <point x="117" y="77"/>
      <point x="117" y="162" type="curve" smooth="yes"/>
      <point x="117" y="252"/>
      <point x="208" y="322"/>
      <point x="293" y="340" type="curve"/>
      <point x="293" y="360" type="line"/>
      <point x="245" y="360"/>
      <point x="161" y="405"/>
      <point x="161" y="505" type="curve" smooth="yes"/>
      <point x="161" y="628"/>
      <point x="311" y="683"/>
      <point x="422" y="683" type="curve" smooth="yes"/>
      <point x="433" y="683"/>
      <point x="447" y="682"/>
      <point x="450" y="682" type="curve"/>
      <point x="451" y="685"/>
      <point x="453" y="690"/>
      <point x="453" y="695" type="curve" smooth="yes"/>
      <point x="453" y="705"/>
      <point x="447" y="711"/>
      <point x="428" y="711" type="curve" smooth="yes"/>
      <point x="392" y="711"/>
      <point x="355" y="704"/>
      <point x="309" y="692" type="curve" smooth="yes"/>
      <point x="256" y="678"/>
      <point x="208" y="652"/>
      <point x="158" y="652" type="curve" smooth="yes"/>
      <point x="72" y="652"/>
      <point x="50" y="701"/>
      <point x="39" y="737" type="curve"/>
      <point x="28" y="733"/>
      <point x="25" y="726"/>
      <point x="25" y="718" type="curve" smooth="yes"/>
      <point x="25" y="672"/>
      <point x="75" y="624"/>
      <point x="149" y="624" type="curve" smooth="yes"/>
      <point x="174" y="624"/>
      <point x="212" y="635"/>
      <point x="223" y="642" type="curve"/>
      <point x="220" y="653" type="line"/>
      <point x="167" y="619"/>
      <point x="129" y="566"/>
      <point x="129" y="500" type="curve" smooth="yes"/>
      <point x="129" y="405"/>
      <point x="210" y="346"/>
      <point x="255" y="345" type="curve"/>
      <point x="255" y="358" type="line"/>
      <point x="177" y="329"/>
      <point x="85" y="272"/>
      <point x="85" y="164" type="curve" smooth="yes"/>
      <point x="85" y="47"/>
      <point x="171" y="19"/>
      <point x="241" y="-4" type="curve" smooth="yes"/>
      <point x="290" y="-21" type="line" smooth="yes"/>
      <point x="331" y="-35"/>
      <point x="388" y="-51"/>
      <point x="388" y="-105" type="curve" smooth="yes"/>
      <point x="388" y="-153"/>
      <point x="348" y="-173"/>
      <point x="334" y="-174" type="curve"/>
      <point x="336" y="-183"/>
      <point x="345" y="-187"/>
      <point x="356" y="-187" type="curve" smooth="yes"/>
    </contour>
    <contour>
      <point x="361" y="336"/>
      <point x="386" y="347"/>
      <point x="386" y="367" type="curve" smooth="yes"/>
      <point x="386" y="371"/>
      <point x="385" y="376"/>
      <point x="384" y="379" type="curve"/>
      <point x="349" y="377"/>
      <point x="286" y="370"/>
      <point x="251" y="362" type="curve"/>
      <point x="251" y="340" type="line"/>
      <point x="270" y="338"/>
      <point x="308" y="336"/>
      <point x="324" y="336" type="curve" smooth="yes"/>
    </contour>
  </outline>
</glyph>
<glyph name="omicron" format="1">
  <advance width="534"/>
  <unicode hex="03BF"/>
  <outline>
    <contour>
      <point x="402" y="-12"/>
      <point x="481" y="85"/>
      <point x="481" y="250" type="curve" smooth="yes"/>
      <point x="481" y="415"/>
      <point x="402" y="512"/>
      <point x="267" y="512" type="curve" smooth="yes"/>
      <point x="132" y="512"/>
      <point x="53" y="415"/>
      <point x="53" y="250" type="curve" smooth="yes"/>
      <point x="53" y="85"/>
      <point x="132" y="-12"/>
      <point x="267" y="-12" type="curve" smooth="yes"/>
    </contour>
    <contour>
      <point x="153" y="16"/>
      <point x="85" y="103"/>
      <point x="85" y="250" type="curve" smooth="yes"/>
      <point x="85" y="397"/>
      <point x="153" y="484"/>
      <point x="267" y="484" type="curve" smooth="yes"/>
      <point x="381" y="484"/>
      <point x="449" y="397"/>
      <point x="449" y="250" type="curve" smooth="yes"/>
      <point x="449" y="103"/>
      <point x="381" y="16"/>
      <point x="267" y="16" type="curve" smooth="yes"/>
    </contour>
    <contour>
      <point x="268" y="500" type="move" name="top"/>
    </contour>
  </outline>
</glyph>
<glyph name="rho" format="1">
  <advance width="517"/>
  <unicode hex="03C1"/>
  <outline>
    <contour>
      <point x="103" y="-230"/>
      <point x="110" y="-224"/>
      <point x="111" y="-221" type="curve"/>
      <point x="104" y="-208"/>
      <point x="103" y="-177"/>
      <point x="103" y="-149" type="curve" smooth="yes"/>
      <point x="103" y="255" type="line" smooth="yes"/>
      <point x="103" y="400.0"/>
      <point x="171.18343195266272" y="484.0"/>
      <point x="270" y="484" type="curve" smooth="yes"/>
      <point x="379.35" y="484.0"/>
      <point x="432" y="391"/>
      <point x="432" y="268" type="curve" smooth="yes"/>
      <point x="432" y="131"/>
      <point x="376" y="16"/>
      <point x="260" y="16" type="curve" smooth="yes"/>
      <point x="198" y="16"/>
      <point x="127" y="58"/>
      <point x="92" y="137" type="curve"/>
      <point x="77" y="115" type="line"/>
      <point x="111.88080640362767" y="35.272442505993865"/>
      <point x="182" y="-12"/>
      <point x="260" y="-12" type="curve" smooth="yes"/>
      <point x="389" y="-12"/>
      <point x="464" y="109"/>
      <point x="464" y="265" type="curve" smooth="yes"/>
      <point x="464" y="396"/>
      <point x="406" y="512"/>
      <point x="270" y="512" type="curve" smooth="yes"/>
      <point x="163" y="512"/>
      <point x="73" y="433.0"/>
      <point x="73" y="254" type="curve" smooth="yes"/>
      <point x="73" y="-176" type="line" smooth="yes"/>
      <point x="73" y="-210"/>
      <point x="75" y="-230"/>
      <point x="95" y="-230" type="curve" smooth="yes"/>
    </contour>
  </outline>
</glyph>
<glyph name="sigmafinal" format="1">
  <advance width="423"/>
  <unicode hex="03C2"/>
  <outline>
    <contour>
      <point x="354" y="-187"/>
      <point x="386" y="-155"/>
      <point x="386" y="-105" type="curve" smooth="yes"/>
      <point x="386" y="-51"/>
      <point x="344" y="-21"/>
      <point x="276" y="2" type="curve" smooth="yes"/>
      <point x="240" y="14" type="line" smooth="yes"/>
      <point x="145" y="48"/>
      <point x="85" y="126"/>
      <point x="85" y="260" type="curve" smooth="yes"/>
      <point x="85" y="389"/>
      <point x="151" y="484"/>
      <point x="266" y="484" type="curve" smooth="yes"/>
      <point x="341" y="484"/>
      <point x="386" y="440"/>
      <point x="386" y="382" type="curve" smooth="yes"/>
      <point x="386" y="343"/>
      <point x="368" y="326"/>
      <point x="353" y="315" type="curve"/>
      <point x="360" y="308"/>
      <point x="367" y="305"/>
      <point x="374" y="305" type="curve" smooth="yes"/>
      <point x="394" y="305"/>
      <point x="418" y="331"/>
      <point x="418" y="379" type="curve" smooth="yes"/>
      <point x="418" y="458"/>
      <point x="357" y="512"/>
      <point x="266" y="512" type="curve" smooth="yes"/>
      <point x="134" y="512"/>
      <point x="53" y="407"/>
      <point x="53" y="260" type="curve" smooth="yes"/>
      <point x="53" y="108"/>
      <point x="123" y="24"/>
      <point x="236" y="-16" type="curve" smooth="yes"/>
      <point x="269" y="-27" type="line" smooth="yes"/>
      <point x="297" y="-36"/>
      <point x="354" y="-51"/>
      <point x="354" y="-105" type="curve" smooth="yes"/>
      <point x="354" y="-153"/>
      <point x="321" y="-172"/>
      <point x="300" y="-174" type="curve"/>
      <point x="302" y="-183"/>
      <point x="311" y="-187"/>
      <point x="322" y="-187" type="curve" smooth="yes"/>
    </contour>
    <contour>
      <point x="262" y="500" type="move" name="top"/>
    </contour>
  </outline>
</glyph>
<glyph name="sigma" format="1">
  <advance width="524"/>
  <unicode hex="03C3"/>
  <outline>
    <contour>
      <point x="390.6394230769231" y="-12.0"/>
      <point x="464.99999981408655" y="82.99997006793231"/>
      <point x="466" y="244" type="curve" smooth="yes"/>
      <point x="467" y="344"/>
      <point x="422" y="465"/>
      <point x="327" y="481" type="curve"/>
      <point x="269" y="472" type="line"/>
      <point x="381.6824386806617" y="468.98172039248226"/>
      <point x="435.00000048753685" y="356.00005460412564"/>
      <point x="434" y="244" type="curve" smooth="yes"/>
      <point x="432.99999972294984" y="100.99996038182283"/>
      <point x="369.638418079096" y="16.0"/>
      <point x="256" y="16" type="curve" smooth="yes"/>
      <point x="155.41176470588235" y="16.0"/>
      <point x="85.0" y="94.0"/>
      <point x="85" y="242" type="curve" smooth="yes"/>
      <point x="85.0" y="389.0"/>
      <point x="162.40526315789475" y="472.0"/>
      <point x="276" y="472" type="curve"/>
      <point x="336" y="473" type="line"/>
      <point x="453" y="474" type="line" smooth="yes"/>
      <point x="487" y="474"/>
      <point x="507" y="473"/>
      <point x="507" y="492" type="curve" smooth="yes"/>
      <point x="507" y="501"/>
      <point x="501" y="507"/>
      <point x="498" y="508" type="curve"/>
      <point x="485" y="501"/>
      <point x="460" y="500"/>
      <point x="432" y="500" type="curve" smooth="yes"/>
      <point x="283" y="500" type="line" smooth="yes"/>
      <point x="138" y="500"/>
      <point x="53.0" y="405.0"/>
      <point x="53" y="241" type="curve" smooth="yes"/>
      <point x="53.0" y="80.0"/>
      <point x="130.3793103448276" y="-12.0"/>
      <point x="257" y="-12" type="curve" smooth="yes"/>
    </contour>
    <contour>
      <point x="267.0" y="500.0" type="move" name="top"/>
    </contour>
  </outline>
</glyph>
<glyph name="upsilon" format="1">
  <advance width="577"/>
  <unicode hex="03C5"/>
  <outline>
    <contour>
      <point x="418" y="-12"/>
      <point x="497" y="90"/>
      <point x="497" y="256" type="curve" smooth="yes"/>
      <point x="497" y="414"/>
      <point x="438.0" y="512.0"/>
      <point x="398" y="512" type="curve" smooth="yes"/>
      <point x="389" y="512"/>
      <point x="383" y="508"/>
      <point x="382" y="501" type="curve"/>
      <point x="429.97834637044525" y="473.4379712339995"/>
      <point x="465" y="378"/>
      <point x="465" y="262" type="curve" smooth="yes"/>
      <point x="465" y="103"/>
      <point x="402" y="16"/>
      <point x="288" y="16" type="curve" smooth="yes"/>
      <point x="199" y="16"/>
      <point x="147" y="71"/>
      <point x="147" y="166" type="curve" smooth="yes"/>
      <point x="147" y="256"/>
      <point x="163.0" y="332.0259333196515"/>
      <point x="163" y="408" type="curve" smooth="yes"/>
      <point x="163" y="465"/>
      <point x="148" y="512"/>
      <point x="93" y="512" type="curve" smooth="yes"/>
      <point x="72" y="512"/>
      <point x="46" y="501"/>
      <point x="46" y="478" type="curve" smooth="yes"/>
      <point x="46" y="471"/>
      <point x="50" y="462"/>
      <point x="55" y="457" type="curve"/>
      <point x="60" y="470"/>
      <point x="71" y="484"/>
      <point x="91" y="484" type="curve" smooth="yes"/>
      <point x="125" y="484"/>
      <point x="133" y="456"/>
      <point x="133" y="410" type="curve" smooth="yes"/>
      <point x="133.0" y="326.5860152940529"/>
      <point x="117" y="248"/>
      <point x="117" y="166" type="curve" smooth="yes"/>
      <point x="117" y="53"/>
      <point x="180" y="-12"/>
      <point x="288" y="-12" type="curve" smooth="yes"/>
    </contour>
    <contour>
      <point x="274.0" y="500.0" type="move" name="top"/>
    </contour>
  </outline>
</glyph>
<glyph name="phi" format="1">
  <advance width="689"/>
  <unicode hex="03C6"/>
  <outline>
    <contour>
      <point x="347" y="-230"/>
      <point x="352" y="-226"/>
      <point x="356" y="-222" type="curve"/>
      <point x="352" y="-206"/>
      <point x="350" y="-175"/>
      <point x="350" y="-135" type="curve" smooth="yes"/>
      <point x="350" y="300" type="line" smooth="yes"/>
      <point x="350" y="418"/>
      <point x="384.22222222222223" y="484.0"/>
      <point x="462" y="484" type="curve" smooth="yes"/>
      <point x="537.8333333333334" y="484.0"/>
      <point x="602.0" y="408.45971563981044"/>
      <point x="602" y="277" type="curve" smooth="yes"/>
      <point x="602.0" y="119.58754863813232"/>
      <point x="513.9989043634803" y="18.999981000522776"/>
      <point x="341" y="16" type="curve"/>
      <point x="341" y="-12" type="line"/>
      <point x="527.0" y="-12.0"/>
      <point x="634.0" y="100.53633217993081"/>
      <point x="634" y="281" type="curve" smooth="yes"/>
      <point x="634.0" y="427.4638297872341"/>
      <point x="555.8181818181818" y="512.0"/>
      <point x="462" y="512" type="curve" smooth="yes"/>
      <point x="367.33333333333337" y="512.0"/>
      <point x="320" y="436"/>
      <point x="320" y="315" type="curve" smooth="yes"/>
      <point x="320" y="-208" type="line" smooth="yes"/>
      <point x="320" y="-222"/>
      <point x="326" y="-230"/>
      <point x="338" y="-230" type="curve" smooth="yes"/>
    </contour>
    <contour>
      <point x="329" y="16" type="line"/>
      <point x="152" y="19"/>
      <point x="84" y="138"/>
      <point x="84" y="266" type="curve" smooth="yes"/>
      <point x="84" y="388"/>
      <point x="149" y="473"/>
      <point x="212" y="491" type="curve"/>
      <point x="212" y="504"/>
      <point x="208" y="512"/>
      <point x="196" y="512" type="curve" smooth="yes"/>
      <point x="159" y="512"/>
      <point x="52" y="435"/>
      <point x="52" y="266" type="curve" smooth="yes"/>
      <point x="52" y="95"/>
      <point x="157" y="-9"/>
      <point x="329" y="-12" type="curve"/>
    </contour>
  </outline>
</glyph>
<glyph name="ecircumflexacute" format="1">
  <advance width="497"/>
  <unicode hex="1EBF"/>
  <outline>
    <contour>
      <point x="266" y="632" type="line"/>
      <point x="367" y="543" type="line"/>
      <point x="373" y="543"/>
      <point x="386" y="547"/>
      <point x="389" y="553" type="curve"/>
      <point x="283" y="664" type="line"/>
      <point x="271" y="666"/>
      <point x="260" y="666"/>
      <point x="248" y="664" type="curve"/>
      <point x="142" y="553" type="line"/>
      <point x="145" y="547"/>
      <point x="156" y="543"/>
      <point x="164" y="543" type="curve"/>
    </contour>
    <contour>
      <point x="463" y="716" type="line"/>
      <point x="454" y="722"/>
      <point x="432" y="729"/>
      <point x="421" y="726" type="curve"/>
      <point x="357" y="631" type="line"/>
      <point x="360" y="628"/>
      <point x="374" y="625"/>
      <point x="382" y="626" type="curve"/>
    </contour>
    <component base="e"/>
  </outline>
</glyph>
<glyph name="ocircumflexacute" format="1">
  <advance width="534"/>
  <unicode hex="1ED1"/>
  <outline>
    <contour>
      <point x="267" y="632" type="line"/>
      <point x="368" y="543" type="line"/>
      <point x="374" y="543"/>
      <point x="387" y="547"/>
      <point x="390" y="553" type="curve"/>
      <point x="284" y="664" type="line"/>
      <point x="272" y="666"/>
      <point x="261" y="666"/>
      <point x="249" y="664" type="curve"/>
      <point x="143" y="553" type="line"/>
      <point x="146" y="547"/>
      <point x="157" y="543"/>
      <point x="165" y="543" type="curve"/>
    </contour>
    <contour>
      <point x="467" y="687" type="line"/>
      <point x="458" y="693"/>
      <point x="436" y="700"/>
      <point x="425" y="697" type="curve"/>
      <point x="361" y="602" type="line"/>
      <point x="364" y="599"/>
      <point x="378" y="596"/>
      <point x="386" y="597" type="curve"/>
    </contour>
    <component base="o"/>
  </outline>
</glyph>
<glyph name="zerowidthnonjoiner" format="1">
  <advance width="0"/>
  <unicode hex="200C"/>
  <outline>
    <contour>
      <point x="15" y="-101" type="line"/>
      <point x="15" y="688" type="line"/>
      <point x="-15" y="688" type="line"/>
      <point x="-15" y="-101" type="line"/>
    </contour>
  </outline>
</glyph>
<glyph name="zerowidthjoiner" format="1">
  <advance width="0"/>
  <unicode hex="200D"/>
  <outline>
    <contour>
      <point x="14" y="-76" type="line"/>
      <point x="14" y="557" type="line"/>
      <point x="118" y="447" type="line"/>
      <point x="139" y="467" type="line"/>
      <point x="22" y="587" type="line"/>
      <point x="141" y="708" type="line"/>
      <point x="121" y="726" type="line"/>
      <point x="0" y="604" type="line"/>
      <point x="-121" y="727" type="line"/>
      <point x="-141" y="707" type="line"/>
      <point x="-25" y="587" type="line"/>
      <point x="-139" y="471" type="line"/>
      <point x="-119" y="451" type="line"/>
      <point x="-15" y="556" type="line"/>
      <point x="-15" y="-76" type="line"/>
    </contour>
  </outline>
</glyph>
<glyph name="emdash" format="1">
  <advance width="779"/>
  <unicode hex="2014"/>
  <outline>
    <contour>
      <point x="60" y="242" type="line"/>
      <point x="719" y="242" type="line"/>
      <point x="719" y="270" type="line"/>
      <point x="60" y="270" type="line"/>
    </contour>
  </outline>
</glyph>
<glyph name="twoinferior" format="1">
  <advance width="380"/>
  <unicode hex="2082"/>
  <outline>
    <contour>
      <point x="346" y="0" type="line"/>
      <point x="353" y="3"/>
      <point x="353" y="20"/>
      <point x="347" y="24" type="curve"/>
      <point x="261" y="22"/>
      <point x="167" y="20"/>
      <point x="79" y="19" type="curve"/>
      <point x="197" y="104"/>
      <point x="322" y="207"/>
      <point x="322" y="328" type="curve" smooth="yes"/>
      <point x="322" y="420"/>
      <point x="255" y="457"/>
      <point x="188" y="457" type="curve" smooth="yes"/>
      <point x="109" y="457"/>
      <point x="66" y="404"/>
      <point x="66" y="374" type="curve" smooth="yes"/>
      <point x="66" y="362"/>
      <point x="74" y="355"/>
      <point x="85" y="355" type="curve"/>
      <point x="88" y="379"/>
      <point x="112" y="436"/>
      <point x="186" y="436" type="curve" smooth="yes"/>
      <point x="259" y="436"/>
      <point x="295" y="385"/>
      <point x="295" y="325" type="curve" smooth="yes"/>
      <point x="295" y="219"/>
      <point x="184" y="125"/>
      <point x="53" y="22" type="curve"/>
      <point x="53" y="13"/>
      <point x="53" y="4"/>
      <point x="60" y="0" type="curve"/>
    </contour>
  </outline>
</glyph>
<glyph name="threeinferior" format="1">
  <advance width="397"/>
  <unicode hex="2083"/>
  <outline>
    <contour>
      <point x="270" y="-8"/>
      <point x="332" y="35"/>
      <point x="332" y="117" type="curve" smooth="yes"/>
      <point x="332" y="193"/>
      <point x="281" y="227"/>
      <point x="210" y="241" type="curve"/>
      <point x="276" y="255"/>
      <point x="317" y="292"/>
      <point x="317" y="353" type="curve" smooth="yes"/>
      <point x="317" y="431"/>
      <point x="252" y="457"/>
      <point x="190" y="457" type="curve" smooth="yes"/>
      <point x="98" y="457"/>
      <point x="63" y="400"/>
      <point x="63" y="374" type="curve" smooth="yes"/>
      <point x="63" y="362"/>
      <point x="69" y="357"/>
      <point x="81" y="357" type="curve"/>
      <point x="84" y="382"/>
      <point x="108" y="436"/>
      <point x="187" y="436" type="curve" smooth="yes"/>
      <point x="255" y="436"/>
      <point x="289" y="398"/>
      <point x="289" y="352" type="curve" smooth="yes"/>
      <point x="289" y="292"/>
      <point x="232" y="251"/>
      <point x="140" y="249" type="curve"/>
      <point x="140" y="230" type="line"/>
      <point x="226" y="228"/>
      <point x="304" y="200"/>
      <point x="304" y="115" type="curve" smooth="yes"/>
      <point x="304" y="54"/>
      <point x="263" y="13"/>
      <point x="181" y="13" type="curve" smooth="yes"/>
      <point x="89" y="13"/>
      <point x="70" y="65"/>
      <point x="65" y="93" type="curve"/>
      <point x="52" y="93"/>
      <point x="46" y="85"/>
      <point x="46" y="75" type="curve" smooth="yes"/>
      <point x="46" y="55"/>
      <point x="73" y="-8"/>
      <point x="182" y="-8" type="curve" smooth="yes"/>
    </contour>
  </outline>
</glyph>
<glyph name="seveninferior" format="1">
  <advance width="341"/>
  <unicode hex="2087"/>
  <outline>
    <contour>
      <point x="163" y="104"/>
      <point x="223" y="328"/>
      <point x="310" y="433" type="curve" smooth="yes"/>
      <point x="316" y="440"/>
      <point x="314" y="455"/>
      <point x="305" y="456" type="curve"/>
      <point x="169" y="456" type="line" smooth="yes"/>
      <point x="127" y="456"/>
      <point x="87" y="456"/>
      <point x="44" y="457" type="curve"/>
      <point x="39" y="452"/>
      <point x="39" y="438"/>
      <point x="45" y="434" type="curve"/>
      <point x="125" y="434"/>
      <point x="205" y="434"/>
      <point x="284" y="435" type="curve"/>
      <point x="208" y="348"/>
      <point x="140" y="113"/>
      <point x="139" y="0" type="curve"/>
      <point x="148" y="-3"/>
      <point x="154" y="-3"/>
      <point x="163" y="0" type="curve"/>
    </contour>
  </outline>
</glyph>
<glyph name="peseta" format="1">
  <advance width="943"/>
  <unicode hex="20A7"/>
  <outline>
    <contour>
      <point x="133" y="-8"/>
      <point x="136" y="-7"/>
      <point x="141" y="0" type="curve"/>
      <point x="138" y="17"/>
      <point x="136" y="78"/>
      <point x="136" y="87" type="curve" smooth="yes"/>
      <point x="136" y="670" type="line"/>
      <point x="143" y="673"/>
      <point x="158" y="674"/>
      <point x="174" y="674" type="curve" smooth="yes"/>
      <point x="287" y="674"/>
      <point x="335" y="625"/>
      <point x="335" y="501" type="curve" smooth="yes"/>
      <point x="335" y="365"/>
      <point x="278" y="307"/>
      <point x="165" y="307" type="curve" smooth="yes"/>
      <point x="132" y="307"/>
      <point x="122" y="307"/>
      <point x="111" y="309" type="curve"/>
      <point x="126" y="283" type="line"/>
      <point x="136" y="282"/>
      <point x="145" y="282"/>
      <point x="158" y="282" type="curve" smooth="yes"/>
      <point x="300" y="282"/>
      <point x="367" y="348"/>
      <point x="367" y="499" type="curve" smooth="yes"/>
      <point x="367" y="634"/>
      <point x="314" y="700"/>
      <point x="178" y="700" type="curve" smooth="yes"/>
      <point x="122" y="700"/>
      <point x="103" y="689"/>
      <point x="101" y="687" type="curve"/>
      <point x="104" y="670"/>
      <point x="106" y="609"/>
      <point x="106" y="600" type="curve" smooth="yes"/>
      <point x="106" y="14" type="line" smooth="yes"/>
      <point x="106" y="2"/>
      <point x="114" y="-8"/>
      <point x="128" y="-8" type="curve" smooth="yes"/>
    </contour>
    <contour>
      <point x="555" y="-12"/>
      <point x="577" y="0"/>
      <point x="577" y="22" type="curve" smooth="yes"/>
      <point x="577" y="28"/>
      <point x="575" y="35"/>
      <point x="571" y="43" type="curve"/>
      <point x="566" y="28"/>
      <point x="550" y="16"/>
      <point x="534" y="16" type="curve" smooth="yes"/>
      <point x="514" y="16"/>
      <point x="507" y="39"/>
      <point x="507" y="71" type="curve" smooth="yes"/>
      <point x="507" y="428" type="line" smooth="yes"/>
      <point x="507" y="548"/>
      <point x="504" y="609"/>
      <point x="511" y="624" type="curve"/>
      <point x="506" y="628"/>
      <point x="499" y="632"/>
      <point x="494" y="632" type="curve" smooth="yes"/>
      <point x="485" y="632"/>
      <point x="478" y="622"/>
      <point x="478" y="610" type="curve" smooth="yes"/>
      <point x="478" y="66" type="line" smooth="yes"/>
      <point x="478" y="12"/>
      <point x="500" y="-12"/>
      <point x="532" y="-12" type="curve" smooth="yes"/>
    </contour>
    <contour>
      <point x="436" y="473"/>
      <point x="459" y="474"/>
      <point x="468" y="474" type="curve" smooth="yes"/>
      <point x="579" y="474" type="line" smooth="yes"/>
      <point x="584" y="474"/>
      <point x="586" y="480"/>
      <point x="587" y="488" type="curve" smooth="yes"/>
      <point x="588" y="502" type="line"/>
      <point x="581" y="501"/>
      <point x="559" y="500"/>
      <point x="552" y="500" type="curve" smooth="yes"/>
      <point x="435" y="500" type="line" smooth="yes"/>
      <point x="431" y="500"/>
      <point x="429" y="494"/>
      <point x="428" y="486" type="curve" smooth="yes"/>
      <point x="427" y="472" type="line"/>
    </contour>
    <contour>
      <point x="872" y="-12"/>
      <point x="897" y="58"/>
      <point x="897" y="114" type="curve" smooth="yes"/>
      <point x="897" y="202"/>
      <point x="835" y="230"/>
      <point x="776" y="269" type="curve" smooth="yes"/>
      <point x="715" y="309"/>
      <point x="688" y="343"/>
      <point x="688" y="399" type="curve" smooth="yes"/>
      <point x="688" y="466"/>
      <point x="726" y="485"/>
      <point x="773" y="485" type="curve" smooth="yes"/>
      <point x="823" y="485"/>
      <point x="859" y="460"/>
      <point x="859" y="405" type="curve" smooth="yes"/>
      <point x="859" y="396"/>
      <point x="858" y="387"/>
      <point x="856" y="378" type="curve"/>
      <point x="864" y="375"/>
      <point x="869" y="375"/>
      <point x="876" y="379" type="curve" smooth="yes"/>
      <point x="883" y="385"/>
      <point x="885" y="395"/>
      <point x="885" y="409" type="curve" smooth="yes"/>
      <point x="885" y="473"/>
      <point x="846" y="513"/>
      <point x="773" y="513" type="curve" smooth="yes"/>
      <point x="711" y="513"/>
      <point x="660" y="484"/>
      <point x="660" y="397" type="curve" smooth="yes"/>
      <point x="660" y="314"/>
      <point x="707" y="281"/>
      <point x="765" y="242" type="curve" smooth="yes"/>
      <point x="832" y="196"/>
      <point x="867" y="172"/>
      <point x="867" y="113" type="curve" smooth="yes"/>
      <point x="867" y="49"/>
      <point x="826" y="16"/>
      <point x="767" y="16" type="curve" smooth="yes"/>
      <point x="711" y="16"/>
      <point x="670" y="49"/>
      <point x="670" y="122" type="curve" smooth="yes"/>
      <point x="670" y="138"/>
      <point x="672" y="146"/>
      <point x="674" y="156" type="curve"/>
      <point x="652" y="159"/>
      <point x="644" y="145"/>
      <point x="644" y="114" type="curve" smooth="yes"/>
      <point x="644" y="47"/>
      <point x="677" y="-12"/>
      <point x="770" y="-12" type="curve" smooth="yes"/>
    </contour>
  </outline>
</glyph>
<glyph name="rupeeIndian" format="1">
  <advance width="526"/>
  <unicode hex="20B9"/>
  <outline>
    <contour>
      <point x="352" y="-11"/>
      <point x="376" y="-15"/>
      <point x="383" y="0" type="curve"/>
      <point x="286" y="93"/>
      <point x="189" y="187"/>
      <point x="92" y="280" type="curve"/>
      <point x="283" y="287"/>
      <point x="395" y="364"/>
      <point x="395" y="483" type="curve" smooth="yes"/>
      <point x="395" y="661"/>
      <point x="241" y="678"/>
      <point x="50" y="678" type="curve"/>
      <point x="50" y="660" type="line"/>
      <point x="239" y="660"/>
      <point x="365" y="627"/>
      <point x="365" y="483" type="curve" smooth="yes"/>
      <point x="365" y="376"/>
      <point x="258" y="309"/>
      <point x="69" y="307" type="curve"/>
      <point x="53" y="276" type="line"/>
      <point x="340" y="0" type="line" smooth="yes"/>
    </contour>
    <contour>
      <point x="65" y="471"/>
      <point x="99" y="472"/>
      <point x="112" y="472" type="curve" smooth="yes"/>
      <point x="489" y="472" type="line" smooth="yes"/>
      <point x="495" y="472"/>
      <point x="499" y="478"/>
      <point x="500" y="486" type="curve" smooth="yes"/>
      <point x="501" y="500" type="line"/>
      <point x="491" y="499"/>
      <point x="459" y="498"/>
      <point x="449" y="498" type="curve" smooth="yes"/>
      <point x="64" y="498" type="line" smooth="yes"/>
      <point x="58" y="498"/>
      <point x="54" y="492"/>
      <point x="53" y="484" type="curve" smooth="yes"/>
      <point x="52" y="470" type="line"/>
    </contour>
    <contour>
      <point x="489" y="662" type="line" smooth="yes"/>
      <point x="495" y="662"/>
      <point x="499" y="668"/>
      <point x="500" y="676" type="curve" smooth="yes"/>
      <point x="501" y="690" type="line"/>
      <point x="491" y="689"/>
      <point x="459" y="688"/>
      <point x="449" y="688" type="curve" smooth="yes"/>
      <point x="50" y="688" type="line"/>
      <point x="46" y="679"/>
      <point x="46" y="669"/>
      <point x="50" y="660" type="curve"/>
    </contour>
  </outline>
</glyph>
<glyph name="downArrow" format="1">
  <advance width="600"/>
  <unicode hex="2193"/>
  <outline>
    <contour>
      <point x="351" y="-6" type="line"/>
      <point x="344" y="-1"/>
      <point x="341" y="7"/>
      <point x="341" y="16" type="curve" smooth="yes"/>
      <point x="339" y="78"/>
      <point x="479" y="217"/>
      <point x="479" y="300" type="curve" smooth="yes"/>
      <point x="479" y="329"/>
      <point x="463" y="366"/>
      <point x="427" y="366" type="curve" smooth="yes"/>
      <point x="413" y="366"/>
      <point x="399" y="360"/>
      <point x="404" y="339" type="curve"/>
      <point x="420" y="347"/>
      <point x="449" y="338"/>
      <point x="449" y="302" type="curve" smooth="yes"/>
      <point x="449" y="245"/>
      <point x="368" y="156"/>
      <point x="326" y="65" type="curve"/>
      <point x="326" y="633" type="line" smooth="yes"/>
      <point x="326" y="736"/>
      <point x="283" y="791"/>
      <point x="207" y="791" type="curve" smooth="yes"/>
      <point x="176" y="791"/>
      <point x="144" y="778"/>
      <point x="135" y="752" type="curve" smooth="yes"/>
      <point x="131" y="740"/>
      <point x="140" y="730"/>
      <point x="148" y="730" type="curve"/>
      <point x="158" y="748"/>
      <point x="179" y="759"/>
      <point x="206" y="759" type="curve" smooth="yes"/>
      <point x="264" y="759"/>
      <point x="296" y="718"/>
      <point x="296" y="633" type="curve" smooth="yes"/>
      <point x="296" y="75" type="line"/>
      <point x="233" y="152"/>
      <point x="176" y="236"/>
      <point x="163" y="294" type="curve" smooth="yes"/>
      <point x="152" y="343"/>
      <point x="171" y="382"/>
      <point x="174" y="388" type="curve"/>
      <point x="172" y="396"/>
      <point x="158" y="402"/>
      <point x="149" y="390" type="curve" smooth="yes"/>
      <point x="138" y="376"/>
      <point x="129" y="330"/>
      <point x="134" y="295" type="curve" smooth="yes"/>
      <point x="149" y="193"/>
      <point x="320" y="-9"/>
      <point x="341" y="-12" type="curve"/>
    </contour>
  </outline>
</glyph>
<glyph name="partialdiff" format="1">
  <advance width="506"/>
  <unicode hex="2202"/>
  <outline>
    <contour>
      <point x="169" y="700"/>
      <point x="115" y="672"/>
      <point x="92" y="616" type="curve" smooth="yes"/>
      <point x="80" y="588"/>
      <point x="88" y="578"/>
      <point x="100" y="573" type="curve"/>
      <point x="116" y="643"/>
      <point x="176" y="671"/>
      <point x="236" y="671" type="curve" smooth="yes"/>
      <point x="326" y="671"/>
      <point x="412" y="609"/>
      <point x="412" y="368" type="curve" smooth="yes"/>
      <point x="412" y="139"/>
      <point x="334" y="22"/>
      <point x="219" y="22" type="curve" smooth="yes"/>
      <point x="159" y="22"/>
      <point x="90" y="54"/>
      <point x="90" y="178" type="curve" smooth="yes"/>
      <point x="90" y="304"/>
      <point x="162" y="378"/>
      <point x="289" y="378" type="curve" smooth="yes"/>
      <point x="358" y="378"/>
      <point x="394" y="356"/>
      <point x="430" y="321" type="curve"/>
      <point x="434" y="353" type="line"/>
      <point x="380" y="388"/>
      <point x="349" y="403"/>
      <point x="287" y="403" type="curve" smooth="yes"/>
      <point x="142" y="403"/>
      <point x="59" y="321"/>
      <point x="59" y="179" type="curve" smooth="yes"/>
      <point x="59" y="56"/>
      <point x="122" y="-5"/>
      <point x="217" y="-5" type="curve" smooth="yes"/>
      <point x="367" y="-5"/>
      <point x="444" y="147"/>
      <point x="444" y="374" type="curve" smooth="yes"/>
      <point x="444" y="601"/>
      <point x="367" y="700"/>
      <point x="238" y="700" type="curve" smooth="yes"/>
    </contour>
  </outline>
</glyph>
<glyph name="brevecomb.cap" format="1">
  <advance width="600"/>
  <outline>
    <contour>
      <point x="411" y="623"/>
      <point x="403" y="626"/>
      <point x="394" y="630" type="curve"/>
      <point x="379" y="602"/>
      <point x="352" y="572"/>
      <point x="303" y="572" type="curve" smooth="yes"/>
      <point x="255" y="572"/>
      <point x="224" y="597"/>
      <point x="207" y="631" type="curve"/>
      <point x="198" y="626"/>
      <point x="188" y="620"/>
      <point x="179" y="615" type="curve"/>
      <point x="199" y="575"/>
      <point x="237" y="540"/>
      <point x="297" y="540" type="curve" smooth="yes"/>
      <point x="354" y="540"/>
      <point x="397" y="572"/>
      <point x="420" y="619" type="curve"/>
    </contour>
    <contour>
      <point x="303" y="572" type="move" name="top"/>
    </contour>
    <contour>
      <point x="299" y="500" type="move" name="_top"/>
    </contour>
  </outline>
</glyph>
<glyph name="circumflexcomb.cap" format="1">
  <advance width="600"/>
  <outline>
    <contour>
      <point x="305" y="654"/>
      <point x="294" y="654"/>
      <point x="282" y="652" type="curve"/>
      <point x="167" y="555" type="line"/>
      <point x="170" y="549"/>
      <point x="177" y="542"/>
      <point x="183" y="539" type="curve"/>
      <point x="300" y="617" type="line"/>
      <point x="416" y="539" type="line"/>
      <point x="422" y="542"/>
      <point x="429" y="549"/>
      <point x="432" y="555" type="curve"/>
      <point x="317" y="652" type="line"/>
    </contour>
    <contour>
      <point x="300" y="640" type="move" name="top"/>
    </contour>
    <contour>
      <point x="300" y="500" type="move" name="_top"/>
    </contour>
  </outline>
</glyph>
<glyph name="dieresiscomb.cap" format="1">
  <advance width="600"/>
  <outline>
    <contour>
      <point x="238" y="572"/>
      <point x="254" y="588"/>
      <point x="254" y="606" type="curve" smooth="yes"/>
      <point x="254" y="624"/>
      <point x="238" y="640"/>
      <point x="220" y="640" type="curve" smooth="yes"/>
      <point x="202" y="640"/>
      <point x="186" y="624"/>
      <point x="186" y="606" type="curve" smooth="yes"/>
      <point x="186" y="588"/>
      <point x="202" y="572"/>
      <point x="220" y="572" type="curve" smooth="yes"/>
    </contour>
    <contour>
      <point x="398" y="572"/>
      <point x="414" y="588"/>
      <point x="414" y="606" type="curve" smooth="yes"/>
      <point x="414" y="624"/>
      <point x="398" y="640"/>
      <point x="380" y="640" type="curve" smooth="yes"/>
      <point x="362" y="640"/>
      <point x="346" y="624"/>
      <point x="346" y="606" type="curve" smooth="yes"/>
      <point x="346" y="588"/>
      <point x="362" y="572"/>
      <point x="380" y="572" type="curve" smooth="yes"/>
    </contour>
    <contour>
      <point x="297" y="612" type="move" name="top"/>
    </contour>
    <contour>
      <point x="297" y="500" type="move" name="_top"/>
    </contour>
  </outline>
</glyph>
<glyph name="g_tildecomb" format="1">
  <advance width="529"/>
  <outline>
    <component base="g"/>
    <component base="tildecomb" xOffset="-31"/>
    <contour>
      <point x="300" y="500" type="move" name="top"/>
    </contour>
    <contour>
      <point x="300" y="0" type="move" name="bottom"/>
    </contour>
  </outline>
</glyph>
<glyph name="hungarumlautcomb.cap" format="1">
  <advance width="600"/>
  <outline>
    <contour>
      <point x="362" y="658"/>
      <point x="349" y="665"/>
      <point x="334" y="669" type="curve"/>
      <point x="229" y="555" type="line"/>
      <point x="231" y="550"/>
      <point x="238" y="542"/>
      <point x="245" y="540" type="curve"/>
      <point x="373" y="644" type="line"/>
    </contour>
    <contour>
      <point x="469" y="656"/>
      <point x="456" y="663"/>
      <point x="441" y="667" type="curve"/>
      <point x="336" y="553" type="line"/>
      <point x="338" y="548"/>
      <point x="345" y="540"/>
      <point x="351" y="538" type="curve"/>
      <point x="480" y="642" type="line"/>
    </contour>
    <contour>
      <point x="232" y="0" type="move" name="top"/>
    </contour>
    <contour>
      <point x="293" y="500" type="move" name="_top"/>
    </contour>
  </outline>
</glyph>
<glyph name="macronbelowcomb.cap" format="1">
  <advance width="600"/>
  <outline>
    <contour>
      <point x="178" y="-91"/>
      <point x="178" y="-101"/>
      <point x="182" y="-110" type="curve"/>
      <point x="417" y="-110" type="line"/>
      <point x="421" y="-101"/>
      <point x="421" y="-91"/>
      <point x="417" y="-82" type="curve"/>
      <point x="182" y="-82" type="line"/>
    </contour>
    <contour>
      <point x="293" y="0" type="move" name="_bottom"/>
    </contour>
    <contour>
      <point x="295" y="0" type="move" name="bottom"/>
    </contour>
  </outline>
</glyph>
<glyph name="tildecomb.cap" format="1">
  <advance width="600"/>
  <outline>
    <contour>
      <point x="430" y="623"/>
      <point x="424" y="626"/>
      <point x="415" y="626" type="curve"/>
      <point x="403" y="605"/>
      <point x="394" y="591"/>
      <point x="368" y="591" type="curve" smooth="yes"/>
      <point x="324" y="591"/>
      <point x="297" y="631"/>
      <point x="248" y="631" type="curve" smooth="yes"/>
      <point x="212" y="631"/>
      <point x="184" y="611"/>
      <point x="174" y="568" type="curve"/>
      <point x="179" y="562"/>
      <point x="186" y="557"/>
      <point x="193" y="558" type="curve"/>
      <point x="201" y="587"/>
      <point x="220" y="600"/>
      <point x="245" y="600" type="curve" smooth="yes"/>
      <point x="285" y="600"/>
      <point x="314" y="560"/>
      <point x="363" y="560" type="curve" smooth="yes"/>
      <point x="399" y="560"/>
      <point x="425" y="584"/>
      <point x="435" y="617" type="curve"/>
    </contour>
    <contour>
      <point x="300" y="668" type="move" name="top"/>
    </contour>
    <contour>
      <point x="306" y="500" type="move" name="_top"/>
    </contour>
  </outline>
</glyph>
<glyph name="tonos.case" format="1">
  <advance width="600"/>
  <outline>
    <component base="tonos" yOffset="-36"/>
    <contour>
      <point x="367" y="688" type="move" name="_topleft"/>
    </contour>
  </outline>
</glyph>
